<mxfile host="65bd71144e">
    <diagram id="fx3Xh6d4nP7QxvTkoZNf" name="Page-1">
        <mxGraphModel dx="1216" dy="592" grid="1" gridSize="10" guides="1" tooltips="1" connect="1" arrows="1" fold="1" page="1" pageScale="1" pageWidth="850" pageHeight="1100" background="#ffffff" math="0" shadow="0">
            <root>
                <mxCell id="0"/>
                <mxCell id="1" parent="0"/>
                <mxCell id="37" value="" style="group;labelBackgroundColor=none;" parent="1" connectable="0" vertex="1">
                    <mxGeometry x="52.5" y="50" width="767.5" height="840" as="geometry"/>
                </mxCell>
                <mxCell id="8" style="edgeStyle=orthogonalEdgeStyle;html=1;exitX=1;exitY=0.5;exitDx=0;exitDy=0;entryX=0;entryY=0.5;entryDx=0;entryDy=0;dashed=1;labelBackgroundColor=none;" parent="37" source="7" edge="1">
                    <mxGeometry relative="1" as="geometry">
                        <mxPoint x="315.7274247491639" y="162.98507462686567" as="targetPoint"/>
                    </mxGeometry>
                </mxCell>
                <mxCell id="7" value="" style="shape=image;verticalLabelPosition=bottom;verticalAlign=top;imageAspect=0;image=data:image/png,iVBORw0KGgoAAAANSUhEUgAAAIAAAACACAYAAADDPmHLAAAABHNCSVQICAgIfAhkiAAAAAlwSFlzAAADsQAAA7EB9YPtSQAAABl0RVh0U29mdHdhcmUAd3d3Lmlua3NjYXBlLm9yZ5vuPBoAAAZUSURBVHic7d1PbBRVHAfw73szs90/3YW2QQh/CqHBeDBGotBAVJCiCKUHI9FAFBOMMSZ64IDx5s3EE3CUk7EmQKuoSU04VCiYYCBpYkCMBkkkqEXIwpYu+3f+eCgQI7Tzvzszv9/n2vfe/rrz7Xszb2a7AGOMMcYYY4wxxqgQALDuxf71zaZ+1NCNxRCWcNJRKoqRzmariqrp4ZbIAtaAEKdVqe87cezYFbFm68CGZrlyEnB24AFAUTXk8oW78WExNQkTq5XF3SvOmqbZ7qZnLl+AkDKswtjcSENihdR1faGbXkJISEUJqyg2lyz0SVju+gj+w0+Sdj6cxHEAiOMAEKfaNViydgDLNr4JiOmmQprILmiGXhjzx6xX8MfxIRQvnJu1nW0Alj2/B7Ak7p8sCgVqRguiRhamTBYrB3bbBsB+CbB4lYgrNWe/vcNHlzgOAHEcAOI4AMRxAIizvQy08/SPZ9D/9TAylUoQ9dxXzWYx8sqrGO9dN/vryxH0KweREVPuxrfyGDH2YtzcNmu7a+2/41LXOeiy4Wp81UxhVbEXi8o9s7Z7PKfiufka0tLdvfWaaeFUqYmLd/w9juF7Bug/NhT4wQeATKWC7V8N2b++csD1wQeAjJjCdmW/bTsvBx8AdNnApa6ztu28HHwASEuBDfP978f4DkCmWvVdxIxjOwhWRpS9j+8gOF4Ovpu+Xg5+EH3v4XMA4jgAxHEAiOMAEMcBII4DQBwHgDgOAHEcAOI4AMRxAIiLfQCqVt5z3woKtm1UM+V5fCd9a6bLj2YF1Pee2AdgxNjrKQQVFDBi7LVtt6rY6ykEqpnCo8Ve23anSk1PB7JmWhgr+X883/fzAK02bm6zvafvx6Jyj+09fT8u3tF939P3I/YzAPOHA0AcB4A4DgBxHADiYnsVsLhNoq8jhbzi77m4KcPC6K0GJupmosZ3KrYB6OtIYYHmfwJLS4G+jhS+uFZL1PhO8RJAXGxngNGbDWzu9D+F3jYsjN588PHtuI/vVGwDMNEwMehx2qMwvlO8BBDHASCOA0BcbM8B4n6dzvsAPsX9Op33AVgkxHYGGL3VwOaAptDvH3adHvPxnYptACbqIV+nx3x8p3gJII4DQBwHgLjYngOEjfcBiON9AEYCzwAz4OcBiOPnARgJHADiOADE8TlAi/A+AHG8D8AigWeAFknMPoAlBITl/3/VzDR2UiVmH2Bi6dIg6niov5cuC21sNs33DDD49rtYf+ok2mrBprmWTuPMxk2Bjske5DsAtzq78N3LO4KohbUAXwUQxwEgjgNAHAcgyRxcntsGwDLC+15AFq7KP3/atrG9Cvj58w+wcus7UNPT/4/Xshpolib9V8dCpVfL+OuH47btxJPPbnK1jScVifZ5HZ4LY9HC5wDEcQCI4wAQxwEgjgNAXGIfCOnuXo7XduzGvPnzfI0zWSrhyPAgrl69ElBl0ZLYALy+8y0s717he5wFXY/gjV178PEnH/kvKoISuwRoWnDZ1jQtsLGiJrEBODI0iBvF677HuVG8jsNHBwOoKJp4J5C4xM4AzBkphHA1A5gBfFsli4yiVFT1N1ddLAt60/83VrIoEF/KVFp5SSiy7qZb7U4Zpunts2gsMn6RovGhAIB1W7Z0NpvisGWZqwEoTnoLIZqpdPqKomlTgLtlZC719Dy22U//y5d/HQ2qligQFpoQOC0ncwfGxj6rJfejN3edOH/TVzg3PdGZ6PeIrwKI4wAQxwEgLrE3g7xI8IeRZ8QBAJBpU1HIqpAEE0A+ALm0ikI2uXf77JA+BxACyGdp/w2QDoCmSAjQm/b/i3QABME1//9IB4DF7CTwqYGBrFLHQjd9pm6XoGqph/7M1BVUFH3W/s/073L19Et1SXt5/NCh2NwujcUcuPaFbTuNpv6pYeh5p31UVUNbLgdFcXRvK0gWgDNS4L2xb4Z/musXdyvyAejt27qj0agPu7mjo2oasvlCaDU5VAew5vS3wxdaXchsIn8OoBvGIbe389LZXCi1uNQGYH+ri7AT+QAYhuFqDZZCQs79tD+T9a0uwE7kAzC9pLoQrd8o0+oC7ETr7WJzLvoBEDK+Dx9auNHqEuxEfh8gpaYO6kbjfcuyHC7swgRwO9SinJm0BPa1ugjGGGOMMcYYY4yxe/4F5hVB6INJysUAAAAASUVORK5CYII=;labelBackgroundColor=none;" parent="37" vertex="1">
                    <mxGeometry x="38.50334448160535" y="102.17910447761194" width="92.40802675585284" height="121.61194029850746" as="geometry"/>
                </mxCell>
                <mxCell id="19" value="" style="group;labelBackgroundColor=none;" parent="37" connectable="0" vertex="1">
                    <mxGeometry x="192.51672240802677" y="336.6268656716418" width="225.88628762541805" height="275.82089552238807" as="geometry"/>
                </mxCell>
                <mxCell id="17" value="" style="ellipse;whiteSpace=wrap;html=1;aspect=fixed;fillColor=none;dashed=1;labelBackgroundColor=none;" parent="19" vertex="1">
                    <mxGeometry width="225.88628762541805" height="225.88628762541805" as="geometry"/>
                </mxCell>
                <mxCell id="15" value="" style="shape=image;verticalLabelPosition=bottom;labelBackgroundColor=none;verticalAlign=top;aspect=fixed;imageAspect=0;image=data:image/png,iVBORw0KGgoAAAANSUhEUgAAAIAAAACACAYAAADDPmHLAAAABHNCSVQICAgIfAhkiAAAAAlwSFlzAAADsQAAA7EB9YPtSQAAABl0RVh0U29mdHdhcmUAd3d3Lmlua3NjYXBlLm9yZ5vuPBoAABbmSURBVHic7V1rtBTVmd1fdd/LUwXRQVQcMTLKQ8wax6hoElkqjq9xaYCIGicxCiS+MSQmcSU3ISqIr0nwPU5iZiUTYYyJuDQoDpfXBRcmKIgvlER5+oiKoBe4XWfPj+6qPqe6qrqqu6q7Lsle696qr+qcU1Xf/vY5X1XXQ7CHYOys+X2E+SNgqyFCdZASHAxgkJD7EegPsh8E/anYAsACuQ8BAASIToA7SZDgRyC2AfyYwEcANwJ4l4qbBLJRFN9Q+X5vtbeNKTTzeJOCNHsHasGpM57Zp8WyjqPgBCgeL+BwEoMBSpHPIrVgaY4lqulZXixcLF8sWCrqTM1lWtndEP6FwItCLLFFFi/NrV6DtjbVGA8kh24TAGfevuCfLCUXKuJ8ACMIWl7SAB+SveRHKuNLuhkolfXeouKDeRsPtc+asDVxB6SETAfA+LY5rZ/03f8SAJOEPLZSqfq8P2kBZFWS79MLBLVTpVfpEvJ+wv7B0hkXfZi4UxJGZgPgnNvaz1Dg3QCGJKzUusgPaqdySJF3BZy2dOYFv0zcOQkicwHQ1kZr5V6LZ4LqWwDSVGrg+F9PHuFtj8DsHr0PuC6rSaPV7B3wYuVe7fckQT4CpmmSD31agoBX7tqx5YkTrpvTKwn/JI1MBcDZt7dfDmIyANPJiEBWtW5aKxdIPsLIL+8nYTQFrUq5jB4QwtOZ6/ovgJnrcXPN3gEH581eMEAVZB6AnpGUighKRTWlmtCqmcTq/8PyCGfOp3cScOTBo1/ixo7fLqrBPakhMz1A187cxQT6eZWqT0uOfRnELVRqEsjroPgogd2+Sg0iVJMwPdsIG1LqTyLVjcde94sRdboqUeSbvQMOCEysdJxB6G6S15ywq+OBNvOCy12n3/KHw0n8hsAx9SrVCEC9XsCQEnNoyluSuwPA6TU5KQVkYkwaO2v+P7RI61aQEtCVk4pf/sN3x84NauPktoV9W/KdywGMbOzpXkB7ftsvTcWyx6y47WvtNbgqcWRiCGhF6/AK8k2lPhZGPgC0t43ZoSyZlJBSU00ilW1dWt0rjUEmAoBUw8KUKuT9Udp59ntnLAewukxDrWR5gsJvmNAILR+HW80YTYxALBY6E21tmfB9JnYCIoPClKp6qOcjNwWuNEkKIL+ie3dNFykmkQOO++shR0Y9pjSRjQAge4cpdW/s3Rm5KYVPA5JIbXPOjE6sZ8hIOYlkPndE1GNKE9kIAKB3mFK3dW7/TNSGKBha9r0/WTGUWkl+UB5RpR2jPRBQ3DfqMaWJTAQAKa1hSrWAcVHaOblt3n4gvwgkp9Swocltr1yiajtOPQWViUvDmQgAwDmtD1Cq8JpTZzxzSLVWLMHNAHrVQ5ax3k/heu8ED8mRk8jsICMBAFTpVvtZqvDEGTOfPDio9ik/fuJ7Alye1A88ftPkksjsREFGrgQqkIIqSj2q0IXVY3/y1B2K9qMt+1jr7Q9y+1B2n6gE14H8fHJKhS+hDpJJIrNx91gmAkBFV2p/Uk0HZHrXNgVYyiAgXKnBxFYS6hMgAb2CQX6MJDIj/GdpCEhbqR6yIiu1Ssbv2YHoSWQ2kJkAqH7RpQFKDSQrdGiqOYnMAjITANUU1hClBpGlk59QEpmRESAbAaC8sm+gUt1piFJTG5oygEwEQFEOpnMbpVQjMfMjP60k0o7norSQjQBAgONSUypCCXWLGJv1H1JqH5qyEQGZOA0U8hUKF0AAKFW8S4XOOOlRtgBUAkAZDFIbVAlx1ymdWM0okdUC4IuRkkhnfbFe0apjaMoKMnFHULNw8vW/3q+rxXovkCxd8R7S6x2ahLzqT/dMnt2I4wxDZoaApqGKUtMcmrKAvwdA6kmkuxljNLEzch6YWA5w3s0LBnS24KCcwgAFDKCIAHZArmMXF1ess92J7be8YtbTgF1ZyFxkli+Ae7F0BlL8n2wSCW9gGUmkGQHcMnUMgP18WgkB30UL3pD97twUr14ZNQfAGT99sofs6nmuAKcSPGkXMcwioKR4oMLSDzzi5wCBkMWEzlCWFKcCiOG44g9FLA6e7nJxypfql9srL3fbEU87EZXqf7oX/2IU9JJ+0SKYDsiJ8VgQoABw69S3ITIP4IMy8I4X47QQOwD+bebSA22r65vYjcsADtQPpZ4LM263Ck+9GGOq8Q4AGE3VodSAfdXJDzpmvZ2K/CFJyCEgrwD5TW659lHkC9fI/rM3R6kZPQcg5azbFk1Sua5XIfg+6JAfQpZOfh1jqrkbzoyHWKNMCFnOXAylJn4lMlGw2D6JYhfHcejKreGmq0dHqR0pAM69fdHgs+9YtFig7iewV6OV6nduXu00LTGlJn0lMlG4xJf/iva+ED7DzVdWfQKpagCcdeeSw2ywHeBJ4Ur17NqeoNQUhqZkYJCN4kUxTzCQvUH+jhuvOjqspdAAOPPOhZ8VZa8AcFj1JMn/Klq3VWrk0z2PH0ICPhnQj+zyPIjiZVECYE9IYS7fu3SvoNYCA+CsW5b0FyWPAdg/ow9aZiSJjBbwycCPbM98pT0UO/M3B7XoHwCkoFX9XIBDG3KPfD1KRXWlmoem+VJbTaNM/QGfLPmB5Jp2UGAAk7nh64f7tewbAOfcsegqAc/NrlI11wQRWlEmmlKzd7pXjdxIgdECyI/8Wq8IgDN+unh/Aj+KpVQkoVTPYYcqNQJZzlwMpWbrdM9LrjfR8038yvMVgYELuOlrg71bqQiAXIFTQfbzUyr8HKEfcF1K3cOSyLoQqOQQW5nrvDaUBRuXeLdkBMDYWfP7gGqKvwNMQt1dbZBS9Y11h6GpdlRTcgQ7uBe4lDRvATACoMVqPY9EP80Hmu/9yaqmsKYmkeVWfMjyBIVf8NUY8DWjLnIj1T0Mb//7P+ubNAJAiC87O1JBljMXQJbuhswotQlDUwx0GRbZEkhuFLKj1z1T36wbAOPb5rQSGJO4UkMUloxSUZ4a/iyvM4jV/yc8NMWBiLXdXKL2rp7oqfiBUREo8A+AnX33/xzIPoaDklCqj3oqyK8gwjVdBCvVn6w4gZpIwMcF1VueJQPjk1uR6Pnb1G11LNddtLezUTcAbPIEf4Ulp1Q/X/kT6xkyElZqBk73CjllveQYfOeagSD7hys3ol29bg45dZyz7XIOQI72qqeCfNdxpn+TUKqxTa2h1JLIwECNG/DxIcDiPz4weZu7gDi2ZnKjBopeVuj+VFy+IUTkeL8kyd1Hg1iPkxNQqt5OakpNYWiqBYTMMxYonlomzNkfh7wabCMQfO0TnE1bADD29kWDQR5QXNdApSK8HWN93UpNfmiqEZ2S2z2nvJ02C1Tnl0lKItGrVhfHsXQ9wAKAFmWP0g+vYUoNIisFpdY6NCVwumeC8rNVs68q36615d1TAQ4OJreWRC/ALgdGP/z5/EOAUgAoqhFJKNWdeh2nkxVbqeWma1VqM0/3PPiwqys307PshqrKjdILRK7rnFrmRgKlAKBwZBJKNRznR75bL5jYSkJ9AsSzjYpthu1rlKEprJ3aQSEvX/vQZR+4CzZecQrIMcl38ZHqjgRKSaCl5Ag2VKkeJyegVL2duoem5MmHAG2r7vvGo47NteNbAc42HeOQE8E2yIxpE4AorQcADzaVqm0TnjaAgDIJK7VesgID1ac9rVRwwNeF21bdO3m6sWSfATMAdWRx+57ErxG9ADEEAKxj7n++BcAB7o5FUNie9raOKENTjShAcMUL906ZVnyipdTuxm+MB3BtMEH1Jno+iV/ldgYDQH7g9m0HKsLyc7rjlapOhlmvVqW60yDyobXXwKGpFggwv5CTaWtmT15jbG/DlJMB9UsAUrWbRo224dNAexA5Ppe3C139xOXf4wAPSXvs2zq82/Q2Gh02wKcp1l0v3DP5ae9Kbph8JoRzQfZ0dzI6Ydp8jbYZcC14bdfAvKh8b4hqolLdpkKVam6WBVDWE/wrIJ9ASg9aqtLVDbL46KUCik8Hll9FW3xHhCq3p7+ext2BqI/uWp8CaodA1ivBqsKufLue5bu7Tgg2TZkKcAbIfI2EhdthPUKQnbP65UHVm1JuMBmlasdTXhyg1JAA0bch/CMo/ytUz368V+uLa9sm7PY6Oovg1suGYHPuHkD9q0FChcq1+Wp2nB4jrAdRqk+eOdWz+EhZcPYbX6k+vYPWUowk0hbyEbHUrUtnfiXWU6/NBjdP2g+2NQ0FXgmydyqq99pG0ESoq9AnD2JXBbH6gdSR8UMvGT+J7KCoKR23XmwkUVkGN0/qDVtOhiUXQvF8CHs1OdHzt519sNArL5LbqWibSg0iSyffJMtf8d78IVoSWRCqHy7rs24GzM/DlR39zjUDgZajQPwjwL6g9AwipXbom7a1RcpcT+wNwSCIGgGFoyHsUT7lKhaomaBa7Dg9hrArr6g6nYZqVGqZxBjtBJC/A5QvLZt1UWUG/d61g6Byl4MYD2JkuR3op9gJwevk0vGIvl7btpfwhnTxMW2/gFP8NJ8r2B/ZlmgbM6chSjWX6+VrSiK5XWCNXTbrghUGFZvbekN2XAWb3wcQ+JBjMmiA0w27nrohdtQeI8dP8512r02t1k6SpQ8bR1Oquz7KJVTCaMr0cxG7CTmv41YP+e9MHQ1unwPgIKSOlJzsZ6fWC8SsK/Z2q71tzE6SHziFqynVcJkZI+VtGmUCAkRzjiK/s/zWic8abW+ZOh6UBWgo+bqzPPNeO6hsU+tWfTpIt4m82lS6J5AbS24o+0NboCnV6Pr9AsUgOVISKfOX3zrxPww6tkz9KkQeAZDyh5UCnBzV6d277jsypH1nMQBE1jXpdG8niCuMH0q2Tj0eIvch9beY+qoClT+0dEtyq9cl3wacn4MV1xZ90tDTPQDqgY5ZF7zpUvLWDf0BeRRAj3hkxkFEx7lO9t6j5/3p1sdGmF0juUnXBV8BSjeEiHAt3cvjEcgvlygHS4Dig8lnwQZnGdz07LoBxIERWKwRdPfXdEaA7TqtBtsgIKbt+NvXrqeuYa8ESgGgCtZaWMotUPPpHoIV7/qpjPnP3XrxRsfge98+EHbhyvR6/mYRVsVuWkDaK4HSELDv8B2vAdweSD7CyNdcrG+7XFUro7cpj0CHbV8BSG8kjpIjsj4mR6kbVDZ+3V3onVsNlAJg7oQJNoCVZeY8LgwiVv/vHQL0PMKZo9sIc7sLC8ytyHn+BNYD5+Dj3mHTzQIjbl3hIhnSvhPQHg0TynJfpWrT+k73jHY2LLnrK1vcrb07bSjAYbG4DUW9iqo30fOej0fdbj37HKvuU46n3EfDSLXCcV7FuO/Y0KZB5Lv/A8kHgFcNvpT9+eTGfrr7Zh58gJ3ouBrDdn0axa6nrscmAQtPOt5yA2BXD2tZ6y67QCLvRz7dnTBJd6Yu+d56WvC4pch3YcL3FWbxkRXCfJyOiHbqAYlXZNjS1x2PuUPA0u+e/SGJDoPE0kaCyHdJd3fGnBrk60Ej2AEdtPqhLpQc0V3H5Chlk6pL9Svdc8YrYkg+WXSnh2Qv+QhSvBbMRrsaTwBgS8EoIKq1slZUOAeXyDNz2Q2MROqCUPlf694z3xGk5Hd0WHbJh2OWXe4l1C2jBQg9BYxASeJ7KQmqoqiMShsRbfrYaSs5Vl0Xy+ToxX/WFxgBsPAn575GYqFJbM3383lI16KmbiSpirTqxn3fT1pPB+mQe7yerHhRpEXe7ZDn0uodAvzId8oHkK+Xr68HSEoVddZNPaiSGNIMbIV8+Kh3YUUAMN//cQLr3AaCyHf/h5BfLlHZTmw0wulNDqrE6vpAcK+MWFtxK31FALS3jSlAqesBk3SHBJd8h2Qv+Vqpip6iXvIb88xc84Iqkbq+eB+thbv8Vvi+LXzRTePmOWcEhuLpPzXIrxgmXNOFCtxPL5JUhV/dPTLR88NNMvS5j/1WBH4wgpTLAG7SyQ8itFzHmdHLBiSRVZGkKtKqW2+iFyHxi7TPoXgBPfa+N2hlYAAsuflLW0RxPKA/OOIl0f90T58G1QtHUqpoVmDUWrfuRM+LnVDqEhn61K6gAqHfDFp0y4TlVJxIoNMl0d1olYzf01VU5hN+SFIVVcp2+7pVILABuVRGLQ99sqrqV8OWzpjwmBKMBrCxnruEnPXBSEoVPna36gWi1K2KLkAmysil/1OtYKTvBnbcPOGFvC3HCvkgQNuXfMZ4KMTvMkDDFBU30YuY+DUkMCLhL1DWaTJi6dwohSN/ObR91oStS2dOnGQVcqMIPgxge/zfDOB/HKrZiopTt95EL+Qm0dDtVsXrEF6Pj9VwGbVkUZQKQA3fDl5y+4SXAXx1RNucSX07C5+zlDqaws+IQh+K9IcqfbAZ+umeFL/brIrSV4qrKhr2JjZxbDeyYtu7QDxealBbp5dH6VaFkq209UY+41Needb7lXdug1BafeP4/MACgO0QeR9K3gTtDhm1/NWAwqFI+d77aODmq/8TwNcjEWjkEzFtw6kEyPflsN/sn+axZR01fz4+eXi7Q9TRC8Sp+7eNjASA8hDYwF7gbxzZCAAqFEcj3246uh2/B+nFN8d9p7wjpRdBQGljvX7KojxFlX8ZZRTyX2/xGRm+5E9oMrIRAACqDgFxeojoPUYfFN/c5dkP77xPcuYken4B6b50y68uSi+VwCcA/h4ARaTYxafbg2j7oO1PFDsjw082AkAB7rv+anZyPXVr7kGq20EBl4nzr6wEgHv5Fmh4LxB6dpBWj5EdZCcAXL9kqJuuKyCD1mULGQkAIJPddBS7G6peR0YCIIuEJdmDZBfZCABDydp8VRsJEVRTD7IBgv+G4ipAukpf4LgQ4PCsq15HNgLA+A0faG43HaGu8GfoxW87j1iX8Hty/Ay8tHUqLN4CIlezOxqI7ASA3l1mOdET3C/DFl7tdxQic20As7h2tA3I7bX7o3GIfD9A+tCdTn+bEex0674H2T2t6qEM77gLwAuJuSZFZCMAiEIkwoIIalzduXLkMs9n3yshAgXKL6qUysT3DrIxBChuK14/j9JNh6xLoosPsouBsDrGUYV/30BxW+j6BiEbASD2OgCa2gBTfRHseq7KRS0rMB9rD4OFgrur/ngzdG2DkI0AyPG5omsjktK0XgBHRj4mqmGBF/wFnfhYrY3cVorIRA4gg3+1BuD6wDG4sYleiK3G8fljWiIe1cTAVeSzMnp5Z2xHpYBMBAAAgOre1BK9xAIDh6JXz29VPZS1o8cBGBNYwMo9FNs/KSE7ASA9ZwN8o+j0LD4d5GI615w4JegwuGb0WaD8PORIV2HYksfjOygdZORX6SK4fvxpIJ4uO9xQXyUhaSR6fnX9sRDE/cjLKuy2umCpERBeAmAcgv1agIXPy/BlKwLWNxyZCgAA4Ppx00He2LxEryrxtUN4vYzouCOdxmtD5gIAALju/DshpY8rhxIU065f9fXgxzJy2Q/TarxWZCcH0HH4qOsB3gSSTUj0koYC8IMskg9ktAdwwHXnngPwYYD90+niU+7ygS0QXiwjOv4vrQ3Ui2z2ACXI0N/Pg+SOhFIPFR8s1AlL8jHwxFEAcDdaWkZlmXwg4z2ADr565r9AcCPAcwBaGU30uiD4LWzVVuvDmo1GtwkAB3z5tKHIWVeDnAhgQEYSvQ0AH0aB98lnl29KuvE00e0CwAEXnpzHoNypUDIewtMBHhT91DARvAxgPhTn4qiOFSLpdClpo9sGgBdc84VhyOdPAfgFKHUMwMNKa5JQfReAV0Ash7Ad0touI9q31r/XzcceEwBecPVJ/ZHHMVA4AlRDIHIogIMBDADQ1/0T2QZSAegE8CGATQC2QGQjiNchajWw7WW/t2zuCfh/nhoJOPTHE2YAAAAASUVORK5CYII=;" parent="19" vertex="1">
                    <mxGeometry x="71.87290969899665" y="25.074626865671643" width="61.60535117056856" height="61.60535117056856" as="geometry"/>
                </mxCell>
                <mxCell id="16" value="" style="shape=image;verticalLabelPosition=bottom;labelBackgroundColor=none;verticalAlign=top;aspect=fixed;imageAspect=0;image=data:image/png,iVBORw0KGgoAAAANSUhEUgAAAIAAAACACAYAAADDPmHLAAAABHNCSVQICAgIfAhkiAAAAAlwSFlzAAADsQAAA7EB9YPtSQAAABl0RVh0U29mdHdhcmUAd3d3Lmlua3NjYXBlLm9yZ5vuPBoAAAgNSURBVHic7Z1LbFZFFIC/2khBaMEGeRgQxdiqLZoYE2IIIooRo8YHimzckajhpUY2wk5FV5rowsdejJRoIroRMKAY0URMBBIeCkhDwQW0FDQUAnUx9w/l5z5m7szcx3/Pl0xQuHfOzJzz33tmzsy5IAiCIAiCIAiCIAiCcCXTgY3AIDDsuQwCXwKdmfRMSGQ6cBL/iq8vJ4FpGfRPSGAj2Su/VjZk0L9K06RxzSDQ6rshMbLH5yRbCND5pR4FFqFnKK3A08A+zbrDMPFJzgGHge3AWqBbs99CgI7y21PU2w70atRfjwuf5FtgVoo2V5KkwVxkUfdzGvXX48onuQCssGh7ZUgaSBv/oE2j/npcT0Xft2h/JfBpAOM16q/Hx1rEcos+NDxJg/eURd2LNOqv5yuNe9K8Dros+tHQJA3ePuD6FPW2Awc06q+nEzilcZ9p2ZSiD5VAZ/COohy6No362oDF6M0AwgwA1ExgA3Basw7dIk+BEFz/0kyLLS3AXGCXhqw1DuQ1HGU3gBqjSDaCbQ7lNQyNYgAA8xJkHXIsr/DoxAJcK8EUnTbq0oJaGo5iCBjtUF7hucZRPb3AsygHrymhtAHPAPsdydahE+hBxQTiaAH6gms7fDeqLCQ9orOOBZiSdtp4CjECIHmgso4FmNKjISOqyH4Ekgcp61iAKcc1ZESVEw7kFxpXPkBaXDp4UdgY0UVnrSgoLgzgIYt7FziQn8QOi3t/ctaKEpP0mMw6FmBKB9CvIae+9CNOIKA3WFnHAky5B7NdRAPAbEeyS09aB8pVcYWuEYjy62gUA4BkIxDlh9BIBgBKwWE+QT+i/FAazQBAOXc9qGXfPtSCz22eZJUeHSVlfS5AyBAd5Rc5FiBYkqSgoscCBEuSFFT0WIAQQxViAWB2llDyE9SRNGBZnwswJe1ZQslPEJA0UEWPBdicJZT9AOgNVJFjATZHyU47kF9oip4g4jQwwbIOWyPKyk/JBR0ncKv3VkSzxfL+yQ7a4KKOUuPrLJ6OE5a0PDsHWAq8wJVPijbgXeCsg3acBd7hyqfghEDm0qANDY+vs3hR790viPfApwA/1N03AKwGHgX+9tCuI8BC4PVA1sh/2wZM0hpJwZom4HuyfyIlla00uL9QFJaQv7KjyvMe+y0AY1CP4rwVHVV6gbG+Ou+D5rwbYMha4Mm8GxFDG3AelZJOcMw03Hj1vst/wAxPY1BpPid/5eqW9Z7GoLLcB1wif8WalLleRqKi/EL+CjUtO72MRAW5G7eK+QNYhUoINTYoXcHf7XYsS/ISO+AJ3CjjHPAy8fGPZmAZKlOIC5mPWfde4A7cKH++gcwHcWMEt6fqsXAVW7BTxEspZC63lPldCplCBJNQTlXad36avY/NwJ6UMn9GgkPOaQZexHyHzyoLma8ayhoM2li2FdZSsR8zpdxpIavbUFaWmc8qyxnMlDLOQlaroawzFrJyIe9zAWkYNrzeJkZveu8lC1m5UEYDOG54/XQLWTcZXl+6rGJlMoCaEzjV8L6HLWSa3jsVcQK9YDMN3E06hTQDe1PKlGmgY2wXgpalkLnSUubmFDKFEFwsBQ9hls9wAWpnj61cWQp2gKtg0BBqeTfuddCM+uW7UP4wEgxywl24UUat7EGt8HWj1gjGBf/9Gunf+VFFwsGOkA0hFadsW8IuIVvCnLOe/BWrWz7zNAaVRraFe6BMK1aDwLXAAzm3I4m3gK/zbkSjMgb14ae8f+VR5ShwnbfeC4A6gJm3oqPKYo/9FgKaUMuseSu7vmxGjodnxiTUp2BGKmAAlbxhIX5OEB9BJZ9YzdUJIn4EbvDYXyGEJtSnYFeiXgsjU7i0AutwlyJmXUj9SwLZ9yO//MIyGXsDaOgkUVWw3GHL+xt6jMq0IygtNhs1Gz5RZBUMwCbPoW2eQqEApM1zqJOnUCgJJnkOdfIUNgwN7eAUmBtRm0W6UYGj6ajkl6NQmddbUEvKteTbg6gg0xDq62bnUdvje1FJMfeiNr+abpkXMmQ+8ClwCH+rkX8Bn1D8gFmluBX4lWyXpYdRu6hmZtA/IYGDZK/8Wkk8rFqFaWAYI78h5PsbQbYLUYJjor4h5OsbQTPJZ1PrTuAWD/0pPXHfEPL5jaB5wMcoR82X0v8EPkIFqLSo4jQw7hM4g8D4DNowBZiFSk93M+rJMwUYjfoYRQsqfV2tnWeAf1HTwAFU0qsTqGngEdQ0cA8pTidX0QCS3smVGpOqOoFZsgT1i86a0YFsoY6k96gPeSeBD4DHgYkeZNSYGMj4kMuObiyVetwFZP0KCJN3APgNtYx7DLWb+BhqmfcilzOhDQTXTwjaNR711G5HLSfPGPHnvYQHr2L7IwZwNVkYQJbE9kd8gIojBlBxxAAqThUNYCjh38OmbJ1AD9AXlB6gQ1PeQf2mOedAjrILy2Hip4H1y6hRW8r6gdka8iQWUDC2Ez9wu1A7c2r0xFw7gJ4RgMQCCsNa4M2Ea34HXkH9cg8Tn5zyNPBIcK0uhYkFVBHTDOA6xeRJIBSAb3BvBP2EO4YSCyggs4ALuDeCsP0Ew0gsoJCsQCnFJf+g3uUjCVNCYWIBVec93D4B+kJk+PL4dYuQwDLcvQ6iXgFiAAWnC9iE3UBHOYFiACWiC3gD2IY6wXMOvUGOmwaKAZScPtIrH5TDl5fy5StmDthAeuWDxAJKTwd2waAa85BYQGnpAN4G5gT/vwNYQ/pQr8QCBEEQBEEQBEEQBEHInP8BIDujRfxfdBgAAAAASUVORK5CYII=;" parent="19" vertex="1">
                    <mxGeometry x="51.33779264214047" y="137.91044776119404" width="82.14046822742475" height="82.14046822742475" as="geometry"/>
                </mxCell>
                <mxCell id="21" style="edgeStyle=orthogonalEdgeStyle;html=1;exitX=0.5;exitY=0;exitDx=0;exitDy=0;entryX=0.5;entryY=1;entryDx=0;entryDy=0;dashed=1;labelBackgroundColor=none;" parent="37" source="17" edge="1">
                    <mxGeometry relative="1" as="geometry">
                        <mxPoint x="356.79765886287623" y="213.13432835820896" as="targetPoint"/>
                    </mxGeometry>
                </mxCell>
                <mxCell id="25" style="edgeStyle=orthogonalEdgeStyle;html=1;exitX=0.5;exitY=0;exitDx=0;exitDy=0;entryX=0.5;entryY=1;entryDx=0;entryDy=0;dashed=1;labelBackgroundColor=none;" parent="37" source="22" target="24" edge="1">
                    <mxGeometry relative="1" as="geometry"/>
                </mxCell>
                <mxCell id="22" value="" style="shape=image;verticalLabelPosition=bottom;labelBackgroundColor=none;verticalAlign=top;aspect=fixed;imageAspect=0;image=data:image/png,iVBORw0KGgoAAAANSUhEUgAAAgAAAAIACAYAAAD0eNT6AAAACXBIWXMAAA7DAAAOwwHHb6hkAAAAGXRFWHRTb2Z0d2FyZQB3d3cuaW5rc2NhcGUub3Jnm+48GgAADIFJREFUeJzt2UuOXGcdh+GvusvdiRVIQEIBKREXgRAj2AA7YiGsgI3AiAkgJIYIBiAEI0QkokAwiZN0um1XMSCgQG6+dJ2v6rzPI/X4/FV2+/eWz2bAEfnTe/tXtufjx5cX43uzbym4f3/2BTDf2Xa8+q27m9dm37G07ewD4D/+9N7+ld3D8ctxNr46+xaAtRMAHIUPxv9nY4yvzb4FoOBs9gHwofH/5uxbACoEAFMZf4A5BADTGH+AeQQAUxh/gLkEAIsz/gDzCQAWZfwBjoMAYDHGH+B4CAAWYfwBjosA4OCMP8DxEQAclPEHOE4CgIMx/gDHSwBwEMYf4LgJAG6d8Qc4fgKAW2X8AU6DAODWGH+A0yEAuBXGH+C0CACemfEHOD0CgGdi/AFOkwDgqRl/gNMlAHgqxh/gtAkAnpjxBzh9AoAnYvwB1kEA8NiMP8B6CAAei/EHWBcBwGcy/gDrIwD4VMYfYJ0EAJ/I+AOslwDgYxl/gHUTAHyE8QdYPwHA/zD+AA0CgP8y/gAdAoAxhvEHqBEAGH+AIAEQZ/wBmgRAmPEH6BIAUcYfoE0ABBl/AARAjPEHYAwBkGL8AfgPARBh/AH4MAEQYPwB+H8CYOWMPwAfRwCsmPEH4JMIgJUy/gB8GgGwQsYfgM8iAFbG+APwOATAihh/AB6XAFgJ4w/AkxAAK2D8AXhSAuDEGX8AnoYAOGHGH4CnJQBOlPEH4FkIgBNk/AF4VgLgxBh/AG6DADghxh+A2yIAToTxB+A2CYATYPwBuG0C4MgZfwAOQQAcMeMPwKEIgCNl/AE4JAFwhIw/AIcmAI6M8QdgCQLgiBh/AJYiAI6E8QdgSQLgCBh/AJYmACYz/gDMIAAmMv4AzCIAJjH+AMwkACYw/gDMJgAWZvwBOAYCYEHGH4BjIQAWYvwBOCYCYAHGH4BjIwAOzPgDcIwEwAEZfwCOlQA4EOMPwDETAAdg/AE4dgLglhl/AE6BALhFxh+AUyEAbonxB+CUCIBbYPwBODUC4BkZfwBOkQB4BsYfgFMlAJ6S8QfglAmAp2D8ATh1AuAJGX8A1kAAPAHjD8BaCIDHZPwBWBMB8BiMPwBrIwA+g/EHYI0EwKcw/gCslQD4BMYfgDUTAB/D+AOwdgLg/xh/AAoEwIcYfwAqBMAHjD8AJQJgGH8AevIBYPwBKEoHgPEHoGo7+4BZPhj/X4wxvjH7FgBYWjIA/rbff+7+1fjJ+XZ8dfYtfNR5+v+lAJaRDIDrMV587vnx3dl3AMAsvmsBQJAAAIAgAQAAQQIAAIIEAAAECQAACBIAABAkAAAgSAAAQJAAAIAgAQAAQQIAAIIEAAAECQAACBIAABAkAAAgSAAAQJAAAIAgAQAAQQIAAIIEAAAECQAACBIAABAkAAAgSAAAQJAAAIAgAQAAQQIAAIIEAAAECQAACBIAABAkAAAgSAAAQJAAAIAgAQAAQQIAAIIEAAAECQAACBIAABAkAAAgSAAAQJAAAIAgAQAAQQIAAIIEAAAECQAACBIAABAkAAAgSAAAQJAAAIAgAQAAQQIAAIIEAAAECQAACBIAABAkAAAgSAAAQNB29gEs53fv/Xz89J8/mn0GR+THr706+wSOwHee//r44dd+MPsMFiYAQh7tH4z3d+/MPoMjcv/Ru7NP4Ai8u7uafQITeAUAAEECAACCBAAABAkAAAgSAAAQJAAAIEgAAECQAACAIAEAAEECAACCBAAABAkAAAgSAAAQJAAAIEgAAECQAACAIAEAAEECAACCBAAABAkAAAgSAAAQJAAAIEgAAECQAACAIAEAAEECAACCBAAABAkAAAjazj6A9Xv5cje++cJu9hmr9Ju3zse7DzeLP/f7X3pjfP7iZvHnrt2968vxq79/afYZRAgADm6zGWO7/EYlnO3nfLB3znbj8kzU3bY7PlMW5BUAAAQJAAAIEgAAECQAACBIAABAkAAAgCABAABBAgAAggQAAAQJAAAIEgAAECQAACBIAABAkAAAgCABAABBAgAAggQAAAQJAAAIEgAAECQAACBIAABAkAAAgCABAABBAgAAggQAAAQJAAAIEgAAECQAACBIAABAkAAAgCABAABBAgAAggQAAARtZx/A+t3sNuPeg83sM1bp4diPMZb/bN+8uRg3u/PFn7t2bz+4M/sEQgQAB/ePm834x42xWJPf3vvi7BOAZ+QVAAAECQAACBIAABAkAAAgSAAAQJAAAIAgAQAAQQIAAIIEAAAECQAACBIAABAkAAAgSAAAQJAAAIAgAQAAQQIAAIIEAAAECQAACBIAABAkAAAgSAAAQJAAAIAgAQAAQQIAAIIEAAAECQAACBIAABAkAAAgaDv7ANbv8myMu+f72Wes0tsPN+PRhI/2i5fX487Gn+ltu9ltxr2by9lnECEAOLgvXOzGt1/YzT5jlX59bzvuP1r+ud976d546eJm+Qev3JvXl+MXb7w8+wwivAIAgCABAABBAgAAggQAAAQJAAAIEgAAECQAACBIAABAkAAAgCABAABBAgAAggQAAAQJAAAIEgAAECQAACBIAABAkAAAgCABAABBAgAAggQAAAQJAAAIEgAAECQAACBIAABAkAAAgCABAABBAgAAggQAAAQJAAAIEgAAECQAACBIAABAkAAAgCABAABB29kHsH5vPTgbf3xnM/uMVbra7ccYy3+2v3/7xXFxtlv8uWt3/eh89gmECAAO7urRGFePBMCavH71/OwTgGfkFQAABAkAAAgSAAAQJAAAIEgAAECQAACAIAEAAEECAACCBAAABAkAAAgSAAAQJAAAIEgAAECQAACAIAEAAEECAACCBAAABAkAAAgSAAAQJAAAIEgAAECQAACAIAEAAEECAACCBAAABAkAAAgSAAAQJAAAIGg7+wDW7/Pb/fjyc7vZZ6zSn987G9e7zeLP/c6Lb4275w8Xf+7avftgO/5w/8XZZxAhADi4u9v9+Mpz+9lnrNJfrzbjesJzv/Lc1Xjp4mbCk9ftzetLAcBivAIAgCABAABBAgAAggQAAAQJAAAIEgAAECQAACBIAABAkAAAgCABAABBAgAAggQAAAQJAAAIEgAAECQAACBIAABAkAAAgCABAABBAgAAggQAAAQJAAAIEgAAECQAACBIAABAkAAAgCABAABBAgAAggQAAAQJAAAIEgAAECQAACBIAABAkAAAgCABAABB29kHsH6vv382Xn9fa67Jz994efYJq7Qfm9knECIAgCe22xsqOHW+lgFAkAAAgCABAABBAgAAggQAAAQJAAAIEgAAECQAACBIAABAkAAAgCABAABBAgAAggQAAAQJAAAIEgAAECQAACBIAABAkAAAgCABAABBAgAAggQAAAQJAAAIEgAAECQAACBIAABAkAAAgCABAABBAgAAgjazD5jhtf3+lbMx/jL7Dpjtn2/vZp/AkTjfdL8Pnm3Hq9+6u3lt9h1L284+AJin/I8+1PntB4AgAQAAQQIAAIIEAAAECQAACBIAABAkAAAgSAAAQJAAAIAgAQAAQQIAAIIEAAAECQAACBIAABAkAAAgSAAAQJAAAIAgAQAAQQIAAIIEAAAECQAACBIAABAkAAAgSAAAQJAAAIAgAQAAQQIAAIIEAAAECQAACBIAABAkAAAgSAAAQJAAAIAgAQAAQQIAAIK2sw+gYT/G2Mw+go/azz6Ao+EXNEcAhDx8MMbV+3OevdmM8cILyz/35maM6+vln3sq3nlzjL0IyDu/M8bdl2ZfwdK8AgCAIAEAAEECAACCBAAABAkAAAgSAAAQJAAAIEgAAECQAACAIAEAAEECAACCBAAABAkAAAgSAAAQJAAAIEgAAECQAACAIAEAAEECAACCBAAABAkAAAgSAAAQJAAAIEgAAECQAACAIAEAAEECAACCBAAABG1nH8By9rMP4OhsNv5eMMbYzD6AGQRAyJ07//4pubj49w8A/8srAAAIEgAAECQAACBIAABAkAAAgCABAABBAgAAggQAAAQJAAAIEgAAECQAACBIAABAkAAAgCABAABBAgAAggQAAAQJAAAIEgAAECQAACBIAABAkAAAgCABAABBAgAAggQAAAQJAAAIEgAAECQAACBIAABAkAAAgCABAABBAgAAggQAAAQJAAAIEgAAECQAACBIAABAkAAAgCABAABBAgAAggQAAAQJAAAIEgAAECQAACBIAABAkAAAgCABAABBAgAAggQAAAQJAAAIEgAAECQAACBIAABAkAAAgCABAABB/wJwyPVGVJRlhwAAAABJRU5ErkJggg==;" parent="37" vertex="1">
                    <mxGeometry x="613.4866220735786" y="421.2537313432836" width="87.27424749163879" height="87.27424749163879" as="geometry"/>
                </mxCell>
                <mxCell id="23" style="edgeStyle=orthogonalEdgeStyle;html=1;exitX=1;exitY=0.5;exitDx=0;exitDy=0;dashed=1;labelBackgroundColor=none;" parent="37" source="17" target="22" edge="1">
                    <mxGeometry relative="1" as="geometry"/>
                </mxCell>
                <mxCell id="24" value="" style="shape=image;verticalLabelPosition=bottom;labelBackgroundColor=none;verticalAlign=top;aspect=fixed;imageAspect=0;image=data:image/png,iVBORw0KGgoAAAANSUhEUgAAAgAAAAIACAYAAAD0eNT6AAA4WUlEQVR42u3dCXgdVd34ccommyyCgIiKghsgIAiCULx3Ji0WReWvYW2SClJeFVxABUXttZmZtCBFC703YREFBam+iPAiLggIiqCVkqQFFGkhSaFsXTJn5qa9N53/OUkoRbplmTtzznw/z3Oe9mFJ7p3fOed3ZuYsW2wBAAAAAAAAAAAAAAAAAAAAAAAAAAAAAAAAAAAAAAAAAAAAAAAAAAAAAAAAAAAAAAAAAAAAAAAAAAAAAAAAAAAAAAAAAAAAAAAAAAAAAAAAAAAAAACQEfOejXZ4tHv1UZ3dlVxnd3Vye0+1qaO7/3ud3f3TXikdXf3fVf98QU8lv6A7OmDevGgbrhwAAJqYG0VbdTyz+giZ0L/U0V29Tib6R+WfVVmiYZZV8mf8s6Or2irL5x7pivbh6gIAkDLtPauPbu+u/Egm7udGkOw3s/S3d3RXvq+eEHDFAQBISHtPtG9HT6VZJudF8SX9DZYH1SsDXhUAAFAjCxdHe8sEPFuWvgQS/3+XJZ1d/V9X8wyIDAAAMWhfGu0p7/gvl0m3nILEv56BQPUsNQeBSAEAMAaiKNqys7v/fJlk/RQm/teU9u7++e3Prj6cqAEAMAqdXdH+6n172hP/f5VKe1fFW7gw2pYIAgAwTO1d1dNkMl2pWfJft/x94bPR24kkAACbQT3yH3rXr2viX7e81PlMZQJRBQBgI9qXRjt29FR/Y0jyf/WVQE+1kegCALAeC1+IdpLJ8n7Dkv8rZU17d/83iDIAAOt44sXojRpO9ht26ezqv5BoAwAgqd30OnqqfzA9+b/yJKCjp/9cog4AyDyZFG/MSPJ/pfTLciKRBwBkVkdX/wUZS/6vlOXtS6L3UgMAAJnT3lUZr2bIZ3QAIEvlcc4QAABkypNPRju3d1efzm7yX1uuojYAADKjs7t6Dcl/cFJgZ1dlIjUCAGC8jq7K8QOz4Un+r5RFixdH21EzAADGUtv8qhPzSPr/dYpgV/8l1A4AgLE6uqqfI+Gvt/iPdEX7UEMAAMaRd//jOnoqj5HsN1C6KrOoJQAA46jNb5JPtP0LOrqqf+zoqV7f2VVx23sqP5D//CZZ7lMn9yX8+cS8Z6M9qCkAAKPIBHd3Iu/Xu6v3dHb3nz9/cbTfpj5j55LKRzq6KzPUxLxkPmulQE0BABhjQc/qQxOY+X//giWVY0fyee+Noq07evqnyp/xXI0/c5eaKEmNAQAYQd6FX1vDJLpS/r7PjMnnXhrtqN7N1/gpwMeoMQAA7ak7WpnYnq/R9rr/6ng2et9Yf4f2nmqT/Pl9NTkyuKd6M7UGAKC9R7tXH1WT5N/TP2/+4mjX2L7HM5Xj1ES9GnyXFeqIZGoOAEBramJbDZJmTy3W0bf3VD9bi7kMC3oqeWoOAEBrMqH9PeaEGXY8s/qImn2fnsr02F8DdFcupeYAALT1yHPRm2VC64/30X9lei2/0+Cchv72mOcBPEDtAQBoSz3Kjvlu+bmFL0Q71fp71WBTo0AtRaQGAQC01NHTf27Mh+h8IbHvNrh7YIyvAVYdQg0CAGipo6dyeYxJctW8p6JdEvtu3dUzY97B8DNpiiUAAJtNJrE7YkySdyX53TqeiXaTn2F1bE8Auvq/Tg0CAGhpYGOe+Nb9T036+6lzBmIc4FxFDQIAaCnOE/bUBkPJf79KS4wDgJuoQQAALckktjyuBFmLjX82pbO7/8sxzgG4gxoEANCSTGS9MSXI1Wk4Na+jp1of4xOA+6hBAAAtqfXsMSXH5Wn4fu09FTvGAcC91CAAgJbUUr2YkuOaxYuj7ZL+fu1d1dNiHAD8nhoEANCSTGJ+XAly/uJov6S/X2dX/4XxLQOs3k4NAgBoqaOn8liM++V/IgXfL76Njnqq11ODAABakonst/FtA1zxkv5+nd3Vh+Mb4FQcahAAQEvtXdWSqXfIj3ZHb1VzEUw85wAAgFHp6O6/OKYE+ef2pdGOSX43laBjPQugp2JTgwAAWursqZ5iYvJXexDIwU1HnAOAec9Ge1CDAABaUrv1jfFj8sSTv9LRVf1cnMlfliXUHgCA1jq6KwtNSv4Pdkfby8/SHfMAYC41BwCgNZnMrjQl+Q99nxtjTv7qpMNzqTkAAK11dFU/bU7y778o9uQvy4Lu6ABqDgBAa/MXR7vKpFbRPfm391Qb5efpj38A0N9JrQEAbNKZs6Od0/4ZO7urv9I1+Q/O+K/MrMWd/+Dyv/5vU6sBIKMaS+FbG1qDExtbwwvk3+c0lMJfNRbDB+TfF8uyWpZoA2XV0H+jysNNpfDmhmLgNRaDzze1lu2zrgz2SeL7jODUvHTM9n8mepf8LHfVKvkPrJiQv5MWAAAZUD8n2mlKq/iYStQyYd/fWCqv2EiCH4vyrCy3ykHFhfL3HVs/K9o+7u8o76LHybvoJ3RJ/moNvvwcs2M8zXD92/92V39HiwAAg53ZuupAmei/q+7SZanGnPA3Vcrys9zZ0Fo+u6Hk7xnXd27v7v9KUsl/QdfqIxf0rD50bhRttcHPtzTas7OrelZ7d/UO+TnCWib+dcokWgcAGGZK26r3DTyOL4X/Tjjhb6z0q6cQsnzt9LbeMd2JbmgyoKh18pcJ/TPyZ68e+h0ysfcvkH/eOzAvoaf6B7Wjn/z7iwkl/HVKZaF6UkJLAQADTLk+2q6pVD5z8NF+apP+hkpfY2t4oyzHjNX16OipNNcy+cs7+lNHsQKhpkUNVGgxAKC5xqt6d28sBdNlEn1Zw8T/+tIazlevCKa2RduM5ro8+WS083rutmNJ/vLnnilLVYfkL8vfufsHAI1NmSP2biyGl8sijEj8/1UaSuFTTa3lxvq5G36Xvilql7vYH/v3VJs0Sv5rOroqx9N6AEBDaiZ/UylwBifUmZf4X1+CxxqKYf1IrpW60+3sqT4Q42P/s2qzYc+YPfq/lhYEAJopFKItm4rlzw0trctA4n9debCh5B883OvW/nT0zlge+/f0T9Up+Xf0VJd2PBPtRksCAI2oxNdQCv+e0cS/blmtnn6oCY9JxqO9q/+LY3z0cNyl/9Guygm0JADQRK4Qbd1QKl8ytOte1pP/uuXfU0rlXBIx6ezu/7JmyT/q7Kq4tCYA0IRayy8T3TyS/cb2EQic0UwSHK6Orv4LdEr8A6Wr+seNbUoEAEiRxtbwVJngeknym7Vs8J7TrxF7xR2Tju7+b2qX/Lv72+c9Fe1CiwKAlFNr3xuL4WwS+/DPHGhqLce2vE2dmqdf8q8+094T7UurAoCUO/valW8aOoWPhD6y5YI/iSMund3907RL/j3VxWr1A60KAFJuSqm8n0xij5PER1xuiGMuwEa2E05zebJzSfQ2WhUApNzktuDwDK/tH/2OgcXgp2qPhLGOS0d3ZYaGyf/P6nhhWhUApFxDW/jhxlKwkkQ+stJUCq6PI/m391R+oFvy7+yuXjNv3ujOTwAA1EBDa/ChxtZwOYl8pLP/gx/Hkfw7uys/1Cz5r5DJfzItCgA0MPTYfxmJfMQT/q6LI/k/9nT0FnVankbJ/97Hno3eQYsCAA1MntN3gExiL5LER1rK12wR43G2URRt2dHdf566s05x4u9RRxDTmgBAEwNL/UrhEyTxEU74ay23bVGjs+zVZLrO7sqlMtEGKUr8y9q7K4WFL0Q70ZoAQBP1c6NtG0rhvSTyEd/5t9Yq+a+rc1G0V0d3ZWZnd/XFBBP/c2ozoiefjHamJQGAZtSja5L4CGf7F8ulJJL/uhYvjrZr76k2qffuNToGuCLLnXLgcfK9UbQ1LQgANNRYLE8mkY+4zEk6+f+3gacCPf3nygR9myzLx3Ap34tykPELNau/45loN1oOAGis8eq+93Cwzwjv/FvDq2KJSWt4TEMpvHCsft6CntWHyqR9dkdP5XKZyP+vo7vyhPzzhY1s1bu0o7u/U/79VjXPoLOn2jC/O3o3rQUADHH+7OgNMpE9QjIfQSmGs+OIiTo0SP58X5ZVjUVxSNx1oH1ptOP8xdF+qvAOHwAyorEUuCTzEcz2L4U/iiMek1v7JsifH7y6k2D4z1yB9+sAgDE0pU18QCaZ1ST0YT/2vyKOeDQVg4/Ln19+/WCjfAm1FQAwJtQudY3F8CES+rDv/GfFEQ/5s08eeOS//t/b19TWtz+1FgAwajKpnGfI2vsV8s/H1f4F6xb5zx6UZbEsL43ZnX8p/EEssWgNT5U/v7KJ3/9Lai0AYFSmti3bZSwTYw1LubE1+L1M+t9tmtM38fRrxF6b833PvCbcV/5/n5L/3zT5M26T5eURTPi7LI5YNBbLTfLnVzfjM6xRKwOovQCAEWsoBp5GSV/dGd+q7pIbboh2HIvvrybVNZTKltq2d3OWP8o7/5lxxKGpGEyVP79/GNfir9ReAMCInHVlsM+6s8xTWwaOIQ6mq88b5/WonxPt1FQKviDv8Bdt4LO0xPF75fc7f+CufvjX5mRqMQBg2IbuetOc/AN5Z/z9KVcs37WW12VqW7SNvDZny9+/5NXPErhx/K6m1vDro7g+D1OLAQDDMmWO2FvNKE9x8r/tjKvKiZ4df9Z10Rsbi+HlahASx89X8xdGvwyxfDy1GQCw2ZpKgZPSxN/bUCo3mH79x2rTpaZieDu1GQCwWaa2RTukc+Z/uSMLa9zVU4UxvG79U9pWvY9aDQDYpIGJbmnbVKdYvks9cjf6wkfROHVgkC5bEQMADKP2lE/Vdrql8Ob6udFWJl/zgd0WS+VrYrqGz3NGAABgo5qu8g8i+deW+n7yu94Q6xOU1uBEajcAYIPURjYpGgD8SS25M/l6qztz+T1vqcG1vInaDQBYr8HH0GF3SpL/E7Ve319r8s5/26bW8Ne12jPB+DkUAICRmVIMj07NPv5FcYjR1/r6aLvGUvm3td0xMfgUtRwA8DpqO92UDADOM/k6Dy2zvDuB6zqHWg4AeB2ZIP6RguT/V7UcztRrPHieQHh/Qtf2SWo5AOA11HG5wzxtLp7T/Ax+9K/mNMjv+Lckr/FZxb53UdsBAGs1lMLTkj/VL/ix0de4GNYnvqyyGEyltgMA1pIDgFkJJ6fVDdeU32nyNR5a7//vhLdTvpraDgBYSyaHvyQ8ALglG9e5fFbC1/kf1HYAwAC12Y5MDGGiiakYTMrQte5Kcokl2wIDAAZMbhWHJnxX+qzp2/2uq7E1nJHk9Z7SJj5ArQcAqIT02WQn/4WXZul6NxWDI5I9WTE8g1oPAFDvpS9O9vG/2bv+rU9DKXwqwYmAF1PrAQDqjvTaBJPRCpM3/tmQxmJ4eWJLAVvDq6j1AAB1N3pvgk8A7s7iNW9sDU9N8JrfRq0HAGzRVAoWJvj+f0YWr3nj1X3vSXAAMI9aDwBQewA8l9jj6FL4mUxe9CgaJ79/b0LXvYdaDwBQA4BVid2NyjvhzF73YvhQQtf9ZWo9AGScOp0uyRUA6hCirF77xlL5t8msuggFNR8AMu5zs/03JzkAmNoW7ZDVay+//00JXfcqNR8AMi7hAUCmE1FDKSwmOPDahtoPABnWUPL3THQPgAxrLIaXJXXt62dF21P7ASDDkh0AhMuyfO3VhjyJDQAydPYCAGA9zr525ZsSHACsyfKdaFMpuD6h616h5gNAxqk7QZkQ+pMaBEye03dAVq+9/P6/TOi6+9R8AIDalnZ5cifTlT+a2eteCv+R0OZLS6n1AAA1GW0RR9MmcN1L5RUJXfd2aj0AILE70YEBQGvQnMVrrjZASm775eAP1HoAQJLvolX5WyaveWvwqQQPYLqRWg8AUHMAZiS5GdCUK5bvmrlrXgp/mNw1D1xqPQBgi4ZScE6S2wE3tIb/L2vXXH7vRxO75sVyE7UeALBF45xyPskBQFOxXMrS9VZLH9UeCIkNuNrCD1PrAQBbNF7Vu3uSCUmWZ3OFaOvMXO9SUEj2AKZlu1DrAQADGkrhU4k+BSiFn8nEhY6icfL7/ifBa72Y2g4AWEsm4JuTHADI8qcsXOdEZ/8PDrRuprYDANZqbA0vSHgAEDW2lY8z/jonuOfC0BLAr1DbAQBrTZkTHJn4AKAU3m3yNW4sBpOSvsZMAAQAvEahEG0pE8QLKRgEnGzi9a2fG20rv9sTCV/bZRwDDAB4nYZS+LMUDACebrgh2tG0a9tULH8nBdf2Fmo5AOB1GovlySlIUlFDa7nNpOt6ZuuqA+X3ChO/rqXyFGo5AOB1hvYDWJ2GQYAprwLq50Q7NZaCx1JwPatT5oi9qeUAgPVqKoa3p2MAEKxsuso/SPvrmfzyykwtswQAjJBMWKekJGFFjcVwUUPJ31PXa9lQDLy0XMuG1vLZ1G4AwAbVz4q2V3ffqRkElMqdp7f17qHbdWxqLX8rPdcwLGfxxEUAwDDJpHt1ipKXKo/q9P56aC5FNS3Xj93/AACbRb17T/hwoPUuD1Sz6XW5hvLz3pGiAcCx1GoAwGZpbA1+n7IBgHodsKKxNfysDtevqRh8PCXJ/5/UZgDAZkvDtrUbTGrFcums66I3pvn6De2suJi1/wAAvQweW9ue1kGALF3qZL00X8LGUvnihK/R4qlt0TZUZgDAsDS0BieleADwSrmvsTU8JpXXr+TvKT9fX3J3/8E51GIAwIjIRPJXDQYBqvxZ7R6YtsNu5Ge6ibt/AIB2Gorlj2oyAHilPCfLlVNK5ZxMgDskff0mF8vjE3r330DtBQCMikwot2k2CHilVNQseDUgUAcdTWkTH5ADg/3UOv3aXr9yZ413UHxIzeGg5gIARqWxrfx2mVh8TQcBGyt9coDwtbivX0Mx+FINv1N/Q1v4YWotAGBMNJTCCw0cAAysJoh73sCZs6OdazaAag1+TG0FAIyZXCHaurE1nG/iIGByMfh03NevsVRurcF3WcKe/wCAMddYFIeog2XMGwQEf4z72k2ZIw6rwff4BLUUABCLxtbwfAOfAqyZXOx7b+zXrhQ+GGPy/wm1EwAQq6ZieLuBg4Afxn3d1NK8mD774/Vzop2omQCAWJ3e1rvHwFa8Jg0AWsPlDTdEO8Z53aZcH20nf9eLY/zZg4aSfzC1EgBQEwPvtIuhMGkQ0FQMpsZ93eQ1u4zDfgAAWlOz59W6c4MGAY/Gfc2a2vr2H7Nr1hpeSi0EACSioRR+06inAKXw2LivWWOp/Lsx2O3vf9WRw9RAAEBimlrDKwwaBPw87us19ORkNJ/xb/Wzou2peQCAxDWUwqIhA4BVp18j9orzWqmdB0c6iVKdbXBGccVu1DgAQDpE0bimYnCtCYOAhlL5krgvV2Op/N3hf7ZyR60PMgIAYJPUO2lDngTEfj7A5LbgLfL3rB7OBMWGkr8ntQwAkFrqDprzATZN/p5fbubnuW9q27JdqFkAgNRrKpY/JxNXhfMBNkwOlKzN+Cy3qg2EqFEAAG00tZZtmcCe53yADYiicfL3PLGRz9AS96sIAABiceY14b5q2RrnA6xfQzH86nrW+IumUngKtQcAoLWpbdE2MqnN5nyA11NL+tR+/uu8enhMHbtMrQEAGKNpTt9E3Q4Rqsn5AKXguqHfdyUb/AAAjHTm7GjnxlL5Gs4HeNXkVnFoYzGYRO0AABhvcAZ8uZPzAQAAyBg1w72hNfgfmWRfzPr5AAAAZM6UK5bv2lgK3MZSeUVWzwcAACCzBgcCA3vkv5TF8wEAAMi0+jnRTo2twRfVBLwsnQ+QNMspvyPv9R5b1+znVLFdMdn2RJMqecf/suUG0waLX7Bccb38e/HVfzZY5P9z4cB/74oz1M+Q/+zwXEt5v2NY3QAAGI6GtvDDQ8vk/CycDxAXlYQtxz9eJWZZviGT9I9sN/iVTOQPydItS1SjsliWP8tyoxxIOHk3mCo/zwlysPB+dj0EALyO2g+/oTU4qakUXC+T8TJTzwcYrUmFl3e2nN6PyGR/Xt71W+Ud+T9ksg1qmOBHU1Zbnuiw3OCXthd8L+/4n8lP9w9Sp0zSAgAAW+QK0dZNreXjh+YL3P3anfQ0Px9gGGRy30smyk+rZCnvpm+VifM/miT64RYx8NTAEZdZTnhybma4L60AAKCWE247ZU5wpLxDP7ehFP6osTW8Z0yWFhZDIX/WfPn3G+SfF0xpFR9T8xOS+p7q7j7vBZ9Uj+/lnfICQ5P95pYllhfMlYOfc3MtKw+gFQAA1hoYGJTK+zUUyx9tag1PbyyWmwYP3ylPe00plr+t/p0qk1v7JjRd5R+kViQk/flzhWi7vCvsvOO7Q+/qqxlP+hsrT9uuuE7NcVBPRqj9AAAtyYR2iyxlEvtIS/BXyxMXT2he+W5qEwBAG/Iu9lKS+JiVx9WKA8sJj6JmAQBSzWpesb9MXP0k7zF/MvCkmjSplkVSywAAqWQ54vck7FjL/ZYXnJMrJD/fAwCAtdSSN5J0TUo574if2C3BkdQ6AEDi1H4HMjn1kKBrV4Y2TpqiVmBQAwEAick7/vdJzImUl9REzPFu8BZqIQCg5iY64dtkMqqQkBMrfZbjX81yQgDAa+Sbe2PfGthy/d+QiBMvVbXzYF1L8EFqPQBkmDpZzxo81S6om7Fsl1h/lxtMIgGnqDjizpwrDqMVAECGqM1kZBL4w2uTgn9+nL9TnYaXd8Uikm+qyhpZbubVAAAYLuf6B8sO//YNJIOFcf9+OQD4Fkk3laWi5ghwQiEAGMb2eneXd/gla1MH8Tj+8XF+jonT/D3l71lFwk3vXgKyDjSfVIh2oNUAgMbUGnzbFV+RHfuyzUoAnrgp7s+U98QvSLTpLnlXdNmufxotCAA0JDvxE6yBA2SGt1xsvOe/Oc7PVdfs50iy2pQ/52eIQ2lNAKABtemL7Qa/GvEucp74ZtyfcQQDE0qSSwfdYPaxM198I60LAFJKHQojO+zlo+vwg/9sEUXjYv2cjvgqiVW78ozdIj5GKwOAFMm1rDxAdtD3jVln3yImxvl5j2tZsZv8PSFJVcv9A244obDyTbQ6AEiQWluvHtkPzN4e047evzXuz65OriOhalo88bzl+PW0QABIQN2M8tutwV38YlkXPmFmsE+cnz/nhEeTTLUvN04qvLwzrREAasRyxOmy810RZ+due8H34v4etivmk0S1XzK4yHJ6P0KrBIAYqf368574WY069+76udFWcX4fOcg4lyRqRKlYrl+Iu74AQCbZLcGRsqNdXNO7Oyf4VJzfKVd4YSf5e3pJoKaU4K9sJwwAYyjvBlMtdaZ7rR/vOuKuuL/b0BbFJE+TJgg2+xatFgBG4ZhZ0fayU70+wQ69f2Jz+Z1xfke10xyJ07xXArXYUAoAjKQSr+WIR1Kw7rsl7u9quf6DJE0jXwn8LzsIAsAw5F1hW5t7gE/8ZWl9Ido2zu8r7xabSJbGlsfVRlW0agDYhLwbnCU7zdVp6sRtxz81zu889KrjZZKlseXFOqf3OFo3AKxPFI2zXeGlsQPPe+LeuL++5YkrSJRGl768K86goQPAOgbugL1gboo77zU5r/d9cV4D9fPV7yFRGl3W1GKDKQDQgu317m67/t806Lx/GPe1kL/jHpKk+UWdA8GmQQAybbwbvMXyxAJNOu5l6klFnNcj7/qnkCCzUvxfT5odvYFeAEDmDCzzc4P/aNZxT4nzmhzRFm2jVh2QHDNT7la7QdIbAMgM2/MPlJ3fEt06bPWqIvZrk9KJkJTYykMnFFa+iV4BgPHyLcERalmUrh12zhWHxXl9ci3l/eTv6ScxZqh4okMO/PaidwBgLMsNDpcd3nKtJ3C5fmv810n8lsSYubJwvOe/mV4CgHHkHc4hspN7yYCOujfu7V3zXvBJEmImS7taFUNvAcAYdc3++wdOSTOlo3aC/4nzeqklYnlXdJEQM1n+eVzLit3oNQBob0LzynfLu/9nTeqk5feZH/d1UxvGkAwzWx6eVHh5Z3oPANqynPI7TL2Ttb3wmDiv3YSZwT7y91RIhtkseTd4IO59JwAgFuoxpprYZGoHbbvip3FfQ3Wc7DA/V1WWxQM7KzriDvn36+XPmJZ3/C+qEwdVyTvBp+qa/dz6ivz/8oP/XXD24P8nZqqfkffEH+WfT8gSkpxrWfxbC4VoS3oTANrIFaLtZAd2v+EddBj3+m05yJiwgd+9Uibov8iE3WZ54utq0qA6S6AW28uqmeqWEx41dGrjD+Rn/D/mK8RZgiI9CgAtqDuWlB/sM4aPacXXYr2YUTRO/p5/qTkH8m6wpJJu3XTxgTTGfeI0f8/B1Qu+Iz/zH2QRJO8xGwRcQs8CIPUydqztEypJE/XXqy9E29pe73g5ICgMPQ1iPsPIizolcgq1CkBqyc7+/Kx1zuq9OZHftIE5IZ5okHezv5TFJ6kPu6zOe/5HqUkAUkclwoze5d1C9IdHnYJnOeHJQ5Mc+0jum11eUCtrqEEAUmNo/3pt9/cfZVnFPu6jqDuF5btaXnCOvI4PkeA3ozji0YmXRTtScwAk7qRCtIPqlLLcKedd8S1qwujVtQQftBz/anlNA5L9RicF/pK5JwASpx6B0yGLxazXHjt1M5btopY3mraD5JgWL/gONQVAYmQHfSGd8dBTAC84kRoxtgZXEqhNiQY2IaKevbb0511hU0sA1JzaDEa9/6YjXltup1bEQz1dsR1xpuUGT1LPXjMf4LncpWJvagiAmhl4ROv6T9EJry1VtVEPNSNeuUK09dCEwW7q3NpyN6+fANQM7/1fLbYrfpef7h9EragdtdX00GmJTBYcmIQafJdaASB2srOZSqc7UP6Vd8UJ1IjkTHTCt8k4/Jy6KKqW4x9PjQAQG3XgjMWJcH3qpDw1QY0akQ4q+akBWcbr5TOTCi/vTG0AMObUSXMWm7XcY3u976E2pI/aXTDv+K6M0erMvgpwxLXUBABjzvbENzOc+AN5l3ketUCDeuqKQ7K8MRXLUQGMKdvzD5SdSzmjnepD3PXrRb2ekXH7gVorn8H6ukQdvEQtADBqQ4/+H87o0r6C+v7UAj1Zzb6VxSWDeU/8jOgDGDXZoVyUueTviefrmkUd0ddfrtC7h4zpHzK3PNULPkH0AYzY0Cl/WVtrff+EmcE+RN8caqMcy/Gbs/RKIO+KReqgLqIPYERs178tW8k/KKrd5oi8mfJu8HEZ55XZWRXgu0QdwLCpR4gZSv4VOdj5ElE3X871D5bxXpyRer2qrtl/P1EHsNmOmRVtrx4hZqSTXG67YgJRz46J0/w9Ldd/MCP1+x4iDmCzybvh6ZmYKOWKZ+umiw8Q8exR5wnIQcCvM1HPHXEmEQewSXUzym/Pxpr/4MmJzeV3EvHsGlrien0GBgHPqAEPEQewUZYjbjC+Q3TEI/Lufy+ijS2iaFzeE5dnYGnrxQQbwAblXHFYBpZK/fOEwso3EW2sa2iZoMn1foXaE4FIA1gv4zdMkXf+JH9siO0Kz+ynAMGVRBnA61gtYqLhE/7mk/yxyXbgihkGt4PVE5pXvpsoA3hVFI1TCdLoCX/T/D0JNDaH7QZzjN0cyBO/IMIA1rK94NMmL/Vjtj+GY2DrYC+Ya2ib6GdzIABryU5hnqmb/ORniEOJMIZr0uzoDZYn/mRou/g5EQbwyv7oJnZyFU70w2hMKry8sxwELDCwbVTzzb3vJcJAxsnO4CEzZ/z75xFdjFZdS9+7ZH16ycAVMTcQXSDDzJ3575eILsZKXbOfUzPoTXtCxooAIMPynrjXwAHA/RzpizFvK47/RQNXxxSJLJBBQ7v+GbbRiXjecsK3El3EQdavmwxrMwF7YwBZ7Mwc8WPTljdxrC/ilCu8sJOsZ08Y1m4uIrJAhgyeh27WiX95x/8+kUXc1PHRsr6FxrQbV3TxygzIENsLvmfYXcxDdGKoFbXCxKzNsvzTiCqQAfWFaFvLEc+Z9B7T9nrfQ2RRM4NHCP/RpAE0QQUywHb8U1nvD4xObma4r6x/y415FcCOmYD55N3/743ptDxxr7obI6pIgu2JJmNeA3jiR0QUMFjdjPLb1Wx5QzqtPrYzRdIMOi/gJXX+AREFDGXW5D+/QESRfJvqfY8ajJqxIsA/hYgCJlITl1yxyJABwL+4W0FaWG4wzYz5NOL3RBMwkEz+tjnv/oMTiSjSIleItpP1crEJm2mp14REFDBM3hHXGjIA+APRRNoYs7rGE18nmoBBjmiLtpGN+2UDOqiq2omNiCJ1omic5foPGtDGHiaYgEHsFvExQ9b8X000kVY5Jzxa1tM1mrezNbmW8n5EEzCE7YrrTFj2N9EJ30Y0kWaynt7OawAAqWDK4/+8G1xFNJF2lhscbsBTAF4DAIZ0SJMMuPsvW074VqIJPdqc/2teAwBInO0Gc3QfAKjvQCShi5wrDtP/KYB/PpEENGfA5j9rcl7v+4gkdKKWq2q+KdCdRBHQmEqcrPsHak8OvE/QvN0F7LYJ6N0JfU3/pX/BSUQS2hnYF0B06v3qTUwgkICmtH8M6fpPFQrRlkQSOrK94GzNB+CziCKgoYmXRTtamp9SZjviAiIJzdvgCo3b4EKiCGhIPb7T/O5D5ArLdyWS0Jnl+iW9X8Gx/BbQTt7xv6/54/8SUYTuhjYG0ngDLv8Uogho1/GIe7R+/N8SHEkUYUhb/Ke+bTGYTQQBjQxt/xtoPAB4mijCFGpvfY3b4j+JIKCRoVPJ9H3s6InLiSJMoQ6x0nhnwMqxM198I1EENJF3xTf0nnjU+xGiCLPaZPCAru2xrlnUEUFAE7Yb/ErjAcAStYkKUYRJLMc/T+N5ANOIIKBLZ+P6T2nb2XjBlUQQxrVJp/wOfXcE9G8jgoAG6mYs20Xj941RXbOfI4owkaXv1sCLiR6ggbznf1Tfu3/xfP3caCuiCCPbpiNmato217ApF6AByxFf1fdRo/gpEYS5bdM/Xt+Juf7xRBBIOXmX8RN9dx0LphJBmErv/Tn884kgkHKWIx7RdQCQc/2DiSCMbp+uuFvLwbkjriV6QPo7mF5NBwDLWP4H09le8D1NnwA8SPSAFBvvBm/R9x2juJMIwnRqlYuuE3SJHpBiOk8ykndG3yaCMN1JhWgHtb2ujm2ULYGBFJNJ9GzW/wPpput+ADlXHEb0gPR2LDM0HQCsVndGRBCZaKeOuEHLiYCe//+IHpDWjsUNfqnpAIAjR5EZeVd8Tc9luuIbRA9IKTVTV9MBwM1ED1mh7URA1y8RPSCl1J7dmnYsDtFDVuQuFXtrOlC/negBaRRF42QD7dN0idHnCCCyRNP9Oh4ickAK2V7v7vruAcA+48gWNe9Fw7bKqYBAGqltdHUdAEyYGexDBJEleU/8QsO2GhA5IIVsV0zQdAAQsAUwMtheL2UzIABj06E4/qmaDgA6iR6yRtb7i7Rsr80r9id6QNo6FC84R8stgF3/NqKHzLVXN/i8lrsBOuHRRA9IGdsRF2i6BPAaooessZzwZB3ba12zqCN6QNo6FNcvaLoE8Aqih6yxvd7xem4HHHyS6AEpIxvnLE1fAUwnesga2/MP1HPJrjid6AEpk3fEtVoOADzxTaKHrLFdsZeer+yCzxM9IGVk4/y5lo8UHf+LRA9ZkytEW8v6v0bD9vplogekjKYbi6gTxhqJHrJI1v/lGrbXbxE5IG2diRfM1fOdYngy0UMm26wrlmr4CmAakQNSxnaDX+k5CVBMIHrIIln/X9bvCUDwXSIHpK4z8W/VcxJg73iih2y2WbFSv2W7wXeIHJAyakc9LV8BtIiJRA9ZJOt/qOErgEuIHJC6zsT/DXMAAJ3arFjNJEAAY9GZ3KLpHIDJRA8ZbbPaLQO0PHExkQNSJu+In+g5ByA4l+gha4b2AWDjLgCjZ7lBUdN9AL5G9JA1cgCwnZ5P7PwvET0gZfKeuFzLOQDMKkYGHTvzxTeycReAMWE5frOekwBFC9FD1tS19L2LSbsAxoTtBd/WskNxg9lED1kjB+zH69he65pFHdEDUkYdqqPlI0VP/ILoIXPt1RVnaPoE4CiiB6SMvKOo1/MJgPg70UPWqNn0ej4B8N9P9ICUkQ0zp+kA4GWih6xRr750bK+5S8XeRA9IGdvzD9R0ABDlCst3JYLIEk3P7qgUCtGWRA9ImfGe/2ZdBwDybuhwIogsUa++NGyrS4gckEJqZC4baFXPiUV+PRFEltiueFbDtjqPyAEpZTniOU2fAlxE9JAVx8yKtpd1vl/DPTvuIHpAStmu/zdNtxdtI3rIipwTHq3pk7qriR6QUpYnbtJzO2DxJ6KHzLRTxz9Pzyd1foHoASmVd3xX01cAK5hdjOy0Uz1P7pQD9QaiB6SU5Qaf13UlgO2KQ4ggMtFOPbFAy+W6Tng00QPS2rE0+5a2SwE9/wtEEKabeFm0o66rdWyvd3ciCKS1c2kuv1PXAUDeEz8jgjCdTKLj2bETwJgb2gsg0HIA4IpFRBCmk/X8a5oOAB4iekDKabrD2ECZMDPYhwjC8Pb5c03b541ED0g52xXXaTsR0PM/SwRhMlnPuzV9QvctogeknBwAfEXfiYDiCiIIU+Wn+wdpO0fHFScQQSDltF4J4Ip2IghTafz+P5o4zd+TCAIpp/epgANLjd5DFGGivCPu0rRd9hA9QBOqweo7AAi+TQRhmlzhhZ1k/S5r2S45BAjQh+UFc7V9CuCIR4ggTGM7/qn67tLpTyeCgCZ0ftc4UJpX7E8UYRKdB+V5L/gkEQQ0kffCD2s9AHDFRUQRpjhmVrS95Qa+pm1xDVsAAxqpL0TbyoYb6vvIUfyDKMIUedc/ReOluQuIIKBdpxM8oPETgDXqXAOiCBNYjrhT37YYFIkgoJm8I2bq/Bog74pvEEXobrwbvEXW54rGk3JPJ4qAZmxXTNB8HsDjW0TROCIJnamBrM7tMDcz3JcoAprJFaLtdJ4HMLT8KE8koS05gJX1+F8aP/7/D0EENGW74ndaPwXwgrlEEdq2vxbxMb0H4MEcogjo2gE54gLNXwOszl0q9iaS0JHek//UPJzg40QR0JTOp4+9WnyHSEI3uZaVB8j6269x2wtPKkQ7EElAY5am54+vU5apfdSJJPRqd0FR67t/R9xFFAHN2a7fpvtTAPUqg0hCF0NL//Q8+OfVJ2/nE0lAcwYsB1Sl+4i2aBuiCR3I+voD7dsc53EA+ssVoq1lg35J+w7JCf6HaCLt1L75Gu/7/8rmP5zICZhCNugfG/AUoEcdqkI0kfK2dpn2bc0TFxNJwBB5LzjRgAGA6pi+TjSRVhOd8G36v/sXa+pa+t5FNAFDDJ0OuMKAQcCLx8588Y1EFGlkyJO2vxNJwDC2K35qwlMAdcgR0UTa5Fz/YFk/qzxlA5A6al99I14DuKJPbbJCRJEmsl7eY0Db6q+bUX470QRME0Xj8q5YZMQgwBF3EFCkhe34pxoyuL6baAKGstxgmiEdlSzBJCKKpE28LNrR0n+3zcENt1z/NCIKGCrXUt7P0nt/8nXLYtX5ElUkyYhNfwbLS5NmR28gooDJHZYn/mTOUwDxQyKKpOS98MNGTPxTd/+e+BERBQxnO+JMgwYA/TknPJqootbU3bKsfwtNaUt108UHiCqQjY5rqUGDgMfYIRC1po6pNqgNPUREgex0XgWDOq8o7wZXEVXUSt7rPdaUR/+D7UecQVSBjMhdKvaWDX+VQYOANbYXfILIIva2U1i+q6xvTxvUdrrVgWFEFsgQyxE3mPQUwPLE82pgQ2QRa7txxS1GtRtXXERUgYzJOcGHDOvIVLmPuxnExfaCcw1rL+K4lhW7EVkggyw3+Itpg4C8Jy4nshhrarWJrF99JrUV2w3mEFkgo/Ju8HEDnwJEedc/hehirNiu2EvWqx7D2kmVMzWAjJMdwTzzBgGBn3PFYUQXozV0lPb9xrURR9xAdIGMs73g0yY+BVCzmy0nfCsRxmgYN1l26O4/39z7XqILZF0UjZMdQruJgwDbFfNzhRd2IsgYibzjf9/IV2Se+BnRBTDAcvx6Q58CqEedd7IyAMNle6LJ0DZRzXm97yPCAAYUCtGWlicWGDsI8MRN6jsSaWyOvBN8StabiqltgQgDeI28F3zS2AHAwOsAv40oY1NsV0wwbbnfOmX1hOaV7ybKAF5HbaRj8iCAPQKwMUN7/Atz20AwmygDWC+7JThSdhRrTB4EWJ64gkjjv1mOf7xaPmpw3V+RK/TuQaQBbJDsKG42egAweCdUVKsfiDaUocf+geH1nj3/AWzcxObyOw1+B7ru6oAf18+NtiLi2aZOkZT1oWx4fX86V4i2I9oANkkmx8vMfwowMAi446RCtAMRz6a8G5xl7Gz/dee+uOIMog1gs6jNcyy1k14WBgGueHi857+ZqGeL5QbTMlK/7yHaAIbF9vzPZqSDVHMCnmRzlGw4oi3axnbFdRmp26uo1wBGJO+Iu7IzCBAr1ftgom4udapf3g0eyEqdzju+S9QBjIjVvGL/DEyQWrf0W25wCZE3T84JPpSh11rqvf+iY2ZF2xN5ACMm74q/l6EBwECxXf+241pW7Eb0zWB5wTkZG8jKAUDwcSIPYFQGzkP3REfWBgGyPGM5vR+hBuirbsayXWQcb8la3eW0PwBjpq4l+KDsWFZncBBQsb3g2+wXoB/LCY9Sj8EzWGeX8PQKwJjK4quAdV4J/C3f3PteakH6qSdWtiu8LKzvX//df3AitQDAmMoVoq1lBzMvq4MAWULbERdwrHB65VuCI2ScOrM7UBXXUQsAxCI/3T/IysI2wRsvD1lucDi1IT3UxlUy+V2a1bv+V+asTCq8vDO1AUBs1F1wxgcAqlQtL7hSTTKjRiQr7/qnZGl534bqY97zP0ptABCvKBqn9tBnEDBQlqolZkwSrL2c6x+c98QfqYMiUvNzqBEAauKEwso35V3RRee7tixk3XVtTHTCt8nrff3AUxjqXWR54k/MSwFQU2qNfMbfua5v/fW9dc1+jtox9tSBTUPv+TO1oc+mnkCNd4O3UDsA1JzsgC6iE15v+XPeFTY1ZPQmzAz2kXe5V8hrGlCvXlP6rRYxkRoCIBnMB9j0igHHr1dLKKksw1PX7L/fcv0Sq042VIJp1BIAiRrabvUxOuSNL9GSd7FfZ4e2TZADSnUio+2K31FnNlb8W9W1osIASNyE5pXvlh3TMjrmTZY+2w1+JZPcp9WOddScQQMT+7zgOzKxPUUd2eSkvw617wG1BkBqyLu2CczMHlZ5yXKDou2Fx2SxvqgkJpNZw9BSvjXUh82rMxOby++ktwGQOpYjvkonPaL3uf9R73Rtzz/Q5PqhXoHYnmgamjfCbP7hlYrV7Fv0MgBSy3L8q+msR1WWyAR5Q94VjZYTvlXryjAwSTQ8Sg5uLpHf6z4rmydKjtGj/+AcehcAqaZ2xZMd1u102mNWHlfbDue94JNp3+tdbRBlt4iPWZ64WCb9/5Wf/WXiN/qSd/zv07MA0MIxs6LtLdd/kM47phUF6hG6Iy5T79DrWoIPqutd6xirZC+T/KS8K76lZqXLz/U0sYkj+Ytr6VEAaMX2encfuHulE6/dkwKViL3gSjWfQD0ytl3/NLUzoZpboGbab27sJk7z98zPEIeqBG97wdnq56lEJH/Hb+XA41E58Hie6x1/sV3xf5wzAUBLllN+h+zIeujMKZRhl4dPKkQ70IsA0FZ+un+Q7MxeoEOnUDazOOIRNo0CYATbFYfIju1FOncKZZOlM1fo3YNeA4Axcq44zGJWOIWy0Xkcav4FvQUA4+RbgiMstgymUNZX/s3RvgCMZrcER8rObjkdPoWytjyRmxnuS+8AwHgDS8wc8RwdP4UJf+IRHvsDyJRcy8oD8q5YRBKgZLcEf1HHadMbAMicCTODfWRHuJBEQMlasV3xO9b5A8i0oR0DHyYpUDJTvGBufSHaltYPIPMmXhbtaLv+bSQHiukl74iZ6pREWj0ADCkUoi0HDrghSVDMLBWO9AWAjbDc4PMW58ZTzCor6ppFHa0bADbBavYtiw2DKGaUxeo8DFo1AGymCc0r3215ooMEQtG1qJn+JxRWvonWDADDpJZJyY70RpIJRbPSb7v+dDWvhVYMAKNgef4XZKe6isRC0aAst73gE7RaABgjlhMeJTvXZ0gwlBQ/8p9vNa/Yn9YKAGPsuJYVu6lNVEg2lLQ98s974nI29wGAmOVd0Sg73ZUkHkoKyhKW+AFADeVayvupw1RIQJTkin+r2sqa1ggANVY/N9rK9oJvM0GQksBEv7NpgQCQsLpm//08DaDU6q5fnWJJqwOAtIiicXnH/yJzAyixFEc8J+vXZ2hoAJBSuZnhvrLDvp2kRRmjssZ2xXVqBQqtCwA0YDnBSZYbPEkCo4y0yMT/D9sLj6E1AYBm1Lps2xPf5LUAZZhlad4NzlKvlWhFAKCx3KVib9mpXy9LP8mNspGijqH+waTCyzvTagDAIJYbHJ53xF0kOsp/FbWT389yLSsPoJUAgMFsr3e87PT/TOKj2K5/W871D6ZVAECG5F1xgkwC80iEmSx3573ww7QCAMgwdXyrTAj3kxTNX9Jnuf5v8l7vsdR6AMBaltP7EZUgBhMFCdOkyX15R/wkP90/iFoOANgg2/MPHFo10Efy1Lr0yjJLbQ5FrQYAbLZcoXePvCu+IcsikqlOE/vEfNsLzp14WbQjtRgAMHLqnAEvONFyxB3sJZDaUpbxuSHnhEdTYQEAY65uRvntQ0cQP0bSTcUyvr9Zrn++7fXuTu0EANREzgk+JJPQD2VZSjKuafm35QbTrOYV+1MLAQCJyRWira0WMdFy/KttVzxLgo6jBE9ajrjMbgmOpMYBAFJJLSeUAwFPJq5/kbhHXPrzbvCA5YmL882976VWAQC0Ynu978k7/hct179VJrUVJPaNlm41kc/2RNN4z38ztQcAYIRCIdrScsKj8q74Vt4Tfxxap57dhO+I5+Qd/k2WF5zDQTwAgEyxXXGI5QafV/MHZFJsN3gXQjXYuU8OfC6X37WehA8AwDpyhRd2GnxKEEyVd8dXyAHC7zRbZVCRZaHl+r+Wf86wHXEmW/ACADBCx7Ws2E1tcmM7/qm2J75pu8EcyxF3ykHCAssN/Bon+afl7/yr5QVz1Va7cpByYd4JPlXX7L9fveYgWgAA1EoUjcu1lPermy4+IBNxznb902wvOHtgvfza4heGzjh4Xcm7futr/lvP/4KajCf/Pmng53n+geypDwAAAAAAAAAAAAAAAAAAAAAAAAAAAAAAAAAAAAAAAAAAAAAAAAAAAAAAAAAAAAAAAAAAAAAAAAAAAAAAAAAAAAAAAAAAAAAAAAAAAAAAAAAAAAAAACTr/wPeQ3gA78VQPwAAAABJRU5ErkJggg==;" parent="37" vertex="1">
                    <mxGeometry x="605.7859531772575" y="102.17910447761194" width="102.67558528428094" height="102.67558528428094" as="geometry"/>
                </mxCell>
                <mxCell id="27" value="sondage via interface web" style="rounded=0;whiteSpace=wrap;html=1;fillColor=none;strokeColor=none;labelBackgroundColor=none;" parent="37" vertex="1">
                    <mxGeometry y="37.61194029850746" width="169.41471571906354" height="75.22388059701493" as="geometry"/>
                </mxCell>
                <mxCell id="28" value="ecrtiure d&#39;un fichier google sheet" style="rounded=0;whiteSpace=wrap;html=1;fillColor=none;strokeColor=none;align=center;labelBackgroundColor=none;" parent="37" vertex="1">
                    <mxGeometry x="272.09030100334445" y="48.268656716417915" width="156.58026755852842" height="64.56716417910448" as="geometry"/>
                </mxCell>
                <mxCell id="30" value="&lt;ul&gt;&lt;li&gt;script python&amp;nbsp;&lt;/li&gt;&lt;li&gt;&lt;span style=&quot;&quot;&gt;téléchargement des resultats de sondage&lt;/span&gt;&lt;/li&gt;&lt;li&gt;ETL + Analyse statistic&lt;/li&gt;&lt;li&gt;resulat : diagramme en image et ecriture des fichier google sheet&lt;/li&gt;&lt;li&gt;effacer les donner de sondage dans aws s3&lt;/li&gt;&lt;li&gt;cron job / chaque 12h pour recollecter les sondages&lt;/li&gt;&lt;/ul&gt;" style="rounded=0;whiteSpace=wrap;html=1;fillColor=none;strokeColor=none;align=left;labelBackgroundColor=none;" parent="37" vertex="1">
                    <mxGeometry x="220.752508361204" y="624.9850746268658" width="279.7909698996655" height="215.01492537313433" as="geometry"/>
                </mxCell>
                <mxCell id="33" value="google sheets" style="rounded=0;whiteSpace=wrap;html=1;fillColor=none;strokeColor=none;labelBackgroundColor=none;" parent="37" vertex="1">
                    <mxGeometry x="582.6839464882943" y="551.6417910447761" width="164.2809364548495" height="37.61194029850746" as="geometry"/>
                </mxCell>
                <mxCell id="36" value="visualisation de donnée&lt;div&gt;&lt;ul&gt;&lt;li&gt;donnée de sondage nettoyé&lt;/li&gt;&lt;li&gt;diagram&lt;/li&gt;&lt;li&gt;rafraichissement automatique /12h&lt;/li&gt;&lt;/ul&gt;&lt;/div&gt;" style="rounded=0;whiteSpace=wrap;html=1;fillColor=none;strokeColor=none;align=left;labelBackgroundColor=none;" parent="37" vertex="1">
                    <mxGeometry x="480.0083612040134" width="287.4916387959866" height="112.83582089552239" as="geometry"/>
                </mxCell>
                <mxCell id="38" value="" style="shape=image;verticalLabelPosition=bottom;labelBackgroundColor=none;verticalAlign=top;aspect=fixed;imageAspect=0;image=data:image/png,iVBORw0KGgoAAAANSUhEUgAAAgAAAAIACAYAAAD0eNT6AAAACXBIWXMAAA7DAAAOwwHHb6hkAAAAGXRFWHRTb2Z0d2FyZQB3d3cuaW5rc2NhcGUub3Jnm+48GgAADIFJREFUeJzt2UuOXGcdh+GvusvdiRVIQEIBKREXgRAj2AA7YiGsgI3AiAkgJIYIBiAEI0QkokAwiZN0um1XMSCgQG6+dJ2v6rzPI/X4/FV2+/eWz2bAEfnTe/tXtufjx5cX43uzbym4f3/2BTDf2Xa8+q27m9dm37G07ewD4D/+9N7+ld3D8ctxNr46+xaAtRMAHIUPxv9nY4yvzb4FoOBs9gHwofH/5uxbACoEAFMZf4A5BADTGH+AeQQAUxh/gLkEAIsz/gDzCQAWZfwBjoMAYDHGH+B4CAAWYfwBjosA4OCMP8DxEQAclPEHOE4CgIMx/gDHSwBwEMYf4LgJAG6d8Qc4fgKAW2X8AU6DAODWGH+A0yEAuBXGH+C0CACemfEHOD0CgGdi/AFOkwDgqRl/gNMlAHgqxh/gtAkAnpjxBzh9AoAnYvwB1kEA8NiMP8B6CAAei/EHWBcBwGcy/gDrIwD4VMYfYJ0EAJ/I+AOslwDgYxl/gHUTAHyE8QdYPwHA/zD+AA0CgP8y/gAdAoAxhvEHqBEAGH+AIAEQZ/wBmgRAmPEH6BIAUcYfoE0ABBl/AARAjPEHYAwBkGL8AfgPARBh/AH4MAEQYPwB+H8CYOWMPwAfRwCsmPEH4JMIgJUy/gB8GgGwQsYfgM8iAFbG+APwOATAihh/AB6XAFgJ4w/AkxAAK2D8AXhSAuDEGX8AnoYAOGHGH4CnJQBOlPEH4FkIgBNk/AF4VgLgxBh/AG6DADghxh+A2yIAToTxB+A2CYATYPwBuG0C4MgZfwAOQQAcMeMPwKEIgCNl/AE4JAFwhIw/AIcmAI6M8QdgCQLgiBh/AJYiAI6E8QdgSQLgCBh/AJYmACYz/gDMIAAmMv4AzCIAJjH+AMwkACYw/gDMJgAWZvwBOAYCYEHGH4BjIQAWYvwBOCYCYAHGH4BjIwAOzPgDcIwEwAEZfwCOlQA4EOMPwDETAAdg/AE4dgLglhl/AE6BALhFxh+AUyEAbonxB+CUCIBbYPwBODUC4BkZfwBOkQB4BsYfgFMlAJ6S8QfglAmAp2D8ATh1AuAJGX8A1kAAPAHjD8BaCIDHZPwBWBMB8BiMPwBrIwA+g/EHYI0EwKcw/gCslQD4BMYfgDUTAB/D+AOwdgLg/xh/AAoEwIcYfwAqBMAHjD8AJQJgGH8AevIBYPwBKEoHgPEHoGo7+4BZPhj/X4wxvjH7FgBYWjIA/rbff+7+1fjJ+XZ8dfYtfNR5+v+lAJaRDIDrMV587vnx3dl3AMAsvmsBQJAAAIAgAQAAQQIAAIIEAAAECQAACBIAABAkAAAgSAAAQJAAAIAgAQAAQQIAAIIEAAAECQAACBIAABAkAAAgSAAAQJAAAIAgAQAAQQIAAIIEAAAECQAACBIAABAkAAAgSAAAQJAAAIAgAQAAQQIAAIIEAAAECQAACBIAABAkAAAgSAAAQJAAAIAgAQAAQQIAAIIEAAAECQAACBIAABAkAAAgSAAAQJAAAIAgAQAAQQIAAIIEAAAECQAACBIAABAkAAAgSAAAQJAAAIAgAQAAQQIAAIIEAAAECQAACBIAABAkAAAgSAAAQNB29gEs53fv/Xz89J8/mn0GR+THr706+wSOwHee//r44dd+MPsMFiYAQh7tH4z3d+/MPoMjcv/Ru7NP4Ai8u7uafQITeAUAAEECAACCBAAABAkAAAgSAAAQJAAAIEgAAECQAACAIAEAAEECAACCBAAABAkAAAgSAAAQJAAAIEgAAECQAACAIAEAAEECAACCBAAABAkAAAgSAAAQJAAAIEgAAECQAACAIAEAAEECAACCBAAABAkAAAjazj6A9Xv5cje++cJu9hmr9Ju3zse7DzeLP/f7X3pjfP7iZvHnrt2968vxq79/afYZRAgADm6zGWO7/EYlnO3nfLB3znbj8kzU3bY7PlMW5BUAAAQJAAAIEgAAECQAACBIAABAkAAAgCABAABBAgAAggQAAAQJAAAIEgAAECQAACBIAABAkAAAgCABAABBAgAAggQAAAQJAAAIEgAAECQAACBIAABAkAAAgCABAABBAgAAggQAAAQJAAAIEgAAECQAACBIAABAkAAAgCABAABBAgAAggQAAARtZx/A+t3sNuPeg83sM1bp4diPMZb/bN+8uRg3u/PFn7t2bz+4M/sEQgQAB/ePm834x42xWJPf3vvi7BOAZ+QVAAAECQAACBIAABAkAAAgSAAAQJAAAIAgAQAAQQIAAIIEAAAECQAACBIAABAkAAAgSAAAQJAAAIAgAQAAQQIAAIIEAAAECQAACBIAABAkAAAgSAAAQJAAAIAgAQAAQQIAAIIEAAAECQAACBIAABAkAAAgaDv7ANbv8myMu+f72Wes0tsPN+PRhI/2i5fX487Gn+ltu9ltxr2by9lnECEAOLgvXOzGt1/YzT5jlX59bzvuP1r+ud976d546eJm+Qev3JvXl+MXb7w8+wwivAIAgCABAABBAgAAggQAAAQJAAAIEgAAECQAACBIAABAkAAAgCABAABBAgAAggQAAAQJAAAIEgAAECQAACBIAABAkAAAgCABAABBAgAAggQAAAQJAAAIEgAAECQAACBIAABAkAAAgCABAABBAgAAggQAAAQJAAAIEgAAECQAACBIAABAkAAAgCABAABB29kHsH5vPTgbf3xnM/uMVbra7ccYy3+2v3/7xXFxtlv8uWt3/eh89gmECAAO7urRGFePBMCavH71/OwTgGfkFQAABAkAAAgSAAAQJAAAIEgAAECQAACAIAEAAEECAACCBAAABAkAAAgSAAAQJAAAIEgAAECQAACAIAEAAEECAACCBAAABAkAAAgSAAAQJAAAIEgAAECQAACAIAEAAEECAACCBAAABAkAAAgSAAAQJAAAIGg7+wDW7/Pb/fjyc7vZZ6zSn987G9e7zeLP/c6Lb4275w8Xf+7avftgO/5w/8XZZxAhADi4u9v9+Mpz+9lnrNJfrzbjesJzv/Lc1Xjp4mbCk9ftzetLAcBivAIAgCABAABBAgAAggQAAAQJAAAIEgAAECQAACBIAABAkAAAgCABAABBAgAAggQAAAQJAAAIEgAAECQAACBIAABAkAAAgCABAABBAgAAggQAAAQJAAAIEgAAECQAACBIAABAkAAAgCABAABBAgAAggQAAAQJAAAIEgAAECQAACBIAABAkAAAgCABAABB29kHsH6vv382Xn9fa67Jz994efYJq7Qfm9knECIAgCe22xsqOHW+lgFAkAAAgCABAABBAgAAggQAAAQJAAAIEgAAECQAACBIAABAkAAAgCABAABBAgAAggQAAAQJAAAIEgAAECQAACBIAABAkAAAgCABAABBAgAAggQAAAQJAAAIEgAAECQAACBIAABAkAAAgCABAABBAgAAgjazD5jhtf3+lbMx/jL7Dpjtn2/vZp/AkTjfdL8Pnm3Hq9+6u3lt9h1L284+AJin/I8+1PntB4AgAQAAQQIAAIIEAAAECQAACBIAABAkAAAgSAAAQJAAAIAgAQAAQQIAAIIEAAAECQAACBIAABAkAAAgSAAAQJAAAIAgAQAAQQIAAIIEAAAECQAACBIAABAkAAAgSAAAQJAAAIAgAQAAQQIAAIIEAAAECQAACBIAABAkAAAgSAAAQJAAAIAgAQAAQQIAAIK2sw+gYT/G2Mw+go/azz6Ao+EXNEcAhDx8MMbV+3OevdmM8cILyz/35maM6+vln3sq3nlzjL0IyDu/M8bdl2ZfwdK8AgCAIAEAAEECAACCBAAABAkAAAgSAAAQJAAAIEgAAECQAACAIAEAAEECAACCBAAABAkAAAgSAAAQJAAAIEgAAECQAACAIAEAAEECAACCBAAABAkAAAgSAAAQJAAAIEgAAECQAACAIAEAAEECAACCBAAABG1nH8By9rMP4OhsNv5eMMbYzD6AGQRAyJ07//4pubj49w8A/8srAAAIEgAAECQAACBIAABAkAAAgCABAABBAgAAggQAAAQJAAAIEgAAECQAACBIAABAkAAAgCABAABBAgAAggQAAAQJAAAIEgAAECQAACBIAABAkAAAgCABAABBAgAAggQAAAQJAAAIEgAAECQAACBIAABAkAAAgCABAABBAgAAggQAAAQJAAAIEgAAECQAACBIAABAkAAAgCABAABBAgAAggQAAAQJAAAIEgAAECQAACBIAABAkAAAgCABAABBAgAAggQAAAQJAAAIEgAAECQAACBIAABAkAAAgCABAABB/wJwyPVGVJRlhwAAAABJRU5ErkJggg==;" vertex="1" parent="37">
                    <mxGeometry x="306.7433110367893" y="102.17910447761194" width="87.27424749163879" height="87.27424749163879" as="geometry"/>
                </mxCell>
            </root>
        </mxGraphModel>
    </diagram>
</mxfile>